<svg xmlns="http://www.w3.org/2000/svg" xmlns:xlink="http://www.w3.org/1999/xlink" zoomAndPan="magnify" preserveAspectRatio="xMidYMid meet" version="1.0" viewBox="82.9 149.75 200.52 94.6"><defs><g/><clipPath id="7623e5ae62"><path d="M 90 195.398438 L 104 195.398438 L 104 244.148438 L 90 244.148438 Z M 90 195.398438 " clip-rule="nonzero"/></clipPath><clipPath id="be874156ba"><path d="M 82.796875 188 L 90 188 L 90 198 L 82.796875 198 Z M 82.796875 188 " clip-rule="nonzero"/></clipPath><clipPath id="861a27a064"><path d="M 83 149.648438 L 116 149.648438 L 116 230 L 83 230 Z M 83 149.648438 " clip-rule="nonzero"/></clipPath><clipPath id="7807321d49"><path d="M 105.726562 174 L 129.742188 174 L 129.742188 205.664062 L 105.726562 205.664062 Z M 105.726562 174 " clip-rule="nonzero"/></clipPath></defs><g fill="#000000" fill-opacity="1"><g transform="translate(146.956737, 190.436764)"><g><path d="M 14.570312 -25.953125 L 10.738281 -25.953125 L 2.316406 -1.972656 C 1.933594 -0.910156 1.214844 -0.265625 0 -0.304688 L 0 0 C 1.785156 0 4.554688 0 6.414062 0 L 6.414062 -0.304688 C 5.199219 -0.265625 4.476562 -0.570312 4.097656 -1.667969 C 4.023438 -1.933594 3.90625 -2.238281 3.832031 -2.503906 C 3.605469 -3.148438 3.640625 -3.71875 3.832031 -4.363281 L 4.628906 -6.488281 C 5.464844 -8.878906 8.535156 -7.589844 10.015625 -7.058594 C 13.050781 -6.070312 15.214844 -6.640625 16.542969 -9.449219 L 19.121094 -2.125 C 19.539062 -0.835938 18.933594 -0.265625 17.644531 -0.304688 L 17.644531 0 L 25.308594 0 L 25.308594 -0.304688 C 23.941406 -0.265625 23.296875 -0.949219 22.917969 -2.125 Z M 16.316406 -10.207031 C 14.910156 -8.6875 12.976562 -9.636719 11.230469 -10.207031 C 8.726562 -11.042969 6.828125 -10.777344 5.5 -9.066406 L 11.117188 -24.964844 Z M 16.316406 -10.207031 "/></g></g></g><g fill="#000000" fill-opacity="1"><g transform="translate(175.29364, 190.436764)"><g><path d="M 0 -1.667969 C 1.402344 -0.53125 2.769531 0 4.589844 0 C 8.839844 0 12.027344 -2.582031 12.027344 -6.714844 L 12.027344 -20.566406 C 12.027344 -24.585938 12.824219 -25.6875 14.457031 -25.609375 L 14.457031 -25.953125 L 5.996094 -25.953125 L 5.996094 -25.609375 C 7.625 -25.6875 8.421875 -24.585938 8.421875 -20.566406 L 8.421875 -4.515625 C 8.421875 -2.503906 7.855469 -0.722656 5.996094 -0.910156 C 4.289062 -1.0625 2.316406 -3.414062 1.328125 -5.121094 Z M 0 -1.667969 "/></g></g></g><g fill="#000000" fill-opacity="1"><g transform="translate(192.781544, 190.436764)"><g><path d="M 2.503906 -25.953125 C 1.101562 -25.953125 0 -24.851562 0 -23.488281 C 0 -22.121094 1.101562 -20.980469 2.503906 -20.980469 C 3.074219 -20.980469 3.109375 -20.679688 2.960938 -20.183594 C 2.769531 -19.652344 2.351562 -19.007812 2.011719 -18.667969 L 2.277344 -18.402344 C 3.832031 -19.882812 4.96875 -21.777344 4.96875 -23.488281 C 4.96875 -24.851562 3.871094 -25.953125 2.503906 -25.953125 Z M 2.503906 -25.953125 "/></g></g></g><g fill="#000000" fill-opacity="1"><g transform="translate(200.861913, 190.436764)"><g><path d="M 0.339844 -10.472656 L 0 -10.472656 L 0 -3.984375 C 3.035156 -1.289062 6.90625 0 11.078125 0 C 14.226562 0 17.796875 -0.871094 19.652344 -3.375 C 21.476562 -5.882812 21.398438 -10.054688 19.273438 -12.332031 C 16.050781 -15.746094 9.597656 -15.253906 5.5 -17.414062 C 2.84375 -18.820312 2.390625 -21.132812 4.289062 -23.105469 C 6.222656 -25.042969 8.992188 -25.535156 11.535156 -25.117188 C 14.796875 -24.585938 17 -22.460938 19.539062 -18.78125 L 20.945312 -22.460938 C 18.210938 -24.699219 14.34375 -25.953125 10.433594 -25.953125 C 8.269531 -25.953125 6.109375 -25.496094 4.25 -24.585938 C 2.238281 -23.5625 0 -21.628906 0 -18.972656 C 0 -16.277344 2.464844 -14.683594 4.515625 -13.8125 C 7.890625 -12.371094 11.988281 -12.253906 15.175781 -10.777344 C 17.074219 -9.902344 18.707031 -8.007812 18.59375 -5.730469 C 18.441406 -1.898438 14.191406 -0.722656 11.269531 -0.683594 C 6.222656 -0.644531 1.746094 -4.628906 0.339844 -10.472656 Z M 0.339844 -10.472656 "/></g></g></g><path stroke-linecap="round" transform="matrix(0, -0.75, 0.75, 0, 137.932963, 235.169634)" fill="none" stroke-linejoin="miter" d="M 0.502221 0.50084 L 101.148061 0.50084 " stroke="#000000" stroke-width="1" stroke-opacity="1" stroke-miterlimit="4"/><g fill="#000000" fill-opacity="1"><g transform="translate(146.956737, 221.204781)"><g><path d="M 5.875 1.453125 C 4.21875 1.453125 2.9375 1.007812 2.03125 0.125 C 1.132812 -0.75 0.6875 -1.882812 0.6875 -3.28125 C 0.6875 -4.5625 1.003906 -5.8125 1.640625 -7.03125 C 2.273438 -8.25 3.070312 -9.367188 4.03125 -10.390625 C 4.820312 -11.222656 5.726562 -11.945312 6.75 -12.5625 C 7.769531 -13.175781 8.835938 -13.648438 9.953125 -13.984375 C 11.078125 -14.328125 12.175781 -14.5 13.25 -14.5 C 14.101562 -14.5 14.867188 -14.382812 15.546875 -14.15625 C 16.234375 -13.925781 16.773438 -13.566406 17.171875 -13.078125 C 17.578125 -12.585938 17.78125 -11.945312 17.78125 -11.15625 C 17.78125 -10.457031 17.613281 -9.804688 17.28125 -9.203125 C 16.945312 -8.597656 16.5 -8.070312 15.9375 -7.625 C 15.382812 -7.1875 14.769531 -6.835938 14.09375 -6.578125 C 13.425781 -6.328125 12.753906 -6.203125 12.078125 -6.203125 C 11.179688 -6.203125 10.425781 -6.40625 9.8125 -6.8125 C 9.207031 -7.226562 8.90625 -7.742188 8.90625 -8.359375 C 8.90625 -9.171875 9.414062 -9.960938 10.4375 -10.734375 C 10.613281 -10.867188 10.753906 -10.9375 10.859375 -10.9375 C 10.941406 -10.9375 10.984375 -10.90625 10.984375 -10.84375 C 10.984375 -10.695312 10.863281 -10.578125 10.625 -10.484375 C 9.789062 -9.816406 9.375 -9.140625 9.375 -8.453125 C 9.375 -7.960938 9.59375 -7.550781 10.03125 -7.21875 C 10.476562 -6.882812 11.039062 -6.71875 11.71875 -6.71875 C 12.3125 -6.71875 12.90625 -6.84375 13.5 -7.09375 C 14.101562 -7.34375 14.660156 -7.679688 15.171875 -8.109375 C 15.679688 -8.546875 16.085938 -9.035156 16.390625 -9.578125 C 16.691406 -10.117188 16.84375 -10.691406 16.84375 -11.296875 C 16.84375 -12.253906 16.515625 -12.957031 15.859375 -13.40625 C 15.203125 -13.851562 14.367188 -14.078125 13.359375 -14.078125 C 12.210938 -14.078125 11.078125 -13.859375 9.953125 -13.421875 C 8.835938 -12.992188 7.785156 -12.398438 6.796875 -11.640625 C 5.816406 -10.890625 4.941406 -10.019531 4.171875 -9.03125 C 2.628906 -7.082031 1.859375 -5.253906 1.859375 -3.546875 C 1.859375 -2.640625 2.0625 -1.867188 2.46875 -1.234375 C 2.882812 -0.609375 3.460938 -0.132812 4.203125 0.1875 C 4.941406 0.519531 5.785156 0.6875 6.734375 0.6875 C 8.148438 0.6875 9.519531 0.378906 10.84375 -0.234375 C 12.164062 -0.847656 13.296875 -1.675781 14.234375 -2.71875 C 14.484375 -2.988281 14.671875 -3.125 14.796875 -3.125 C 14.878906 -3.125 14.921875 -3.054688 14.921875 -2.921875 C 14.921875 -2.742188 14.84375 -2.570312 14.6875 -2.40625 C 14.175781 -1.875 13.570312 -1.375 12.875 -0.90625 C 12.175781 -0.445312 11.425781 -0.0390625 10.625 0.3125 C 9.832031 0.664062 9.023438 0.941406 8.203125 1.140625 C 7.390625 1.347656 6.613281 1.453125 5.875 1.453125 Z M 5.875 1.453125 "/></g></g></g><g fill="#000000" fill-opacity="1"><g transform="translate(163.155665, 221.204781)"><g><path d="M 1.703125 0.046875 C 1.265625 0.046875 0.859375 -0.0625 0.484375 -0.28125 C 0.117188 -0.5 -0.0625 -0.859375 -0.0625 -1.359375 C -0.0625 -2.054688 0.179688 -2.890625 0.671875 -3.859375 C 1.171875 -4.828125 1.742188 -5.832031 2.390625 -6.875 C 4.128906 -9.695312 5.363281 -11.109375 6.09375 -11.109375 C 6.238281 -11.109375 6.390625 -11.050781 6.546875 -10.9375 C 6.703125 -10.832031 6.789062 -10.710938 6.8125 -10.578125 L 5.25 -8.484375 C 4.632812 -7.660156 4.082031 -6.898438 3.59375 -6.203125 C 3.101562 -5.515625 2.679688 -4.894531 2.328125 -4.34375 C 2.140625 -4.0625 1.9375 -3.742188 1.71875 -3.390625 C 1.5 -3.035156 1.300781 -2.664062 1.125 -2.28125 C 0.957031 -1.90625 0.875 -1.523438 0.875 -1.140625 C 0.875 -0.960938 0.925781 -0.800781 1.03125 -0.65625 C 1.132812 -0.519531 1.316406 -0.453125 1.578125 -0.453125 C 2.054688 -0.453125 2.679688 -0.707031 3.453125 -1.21875 C 4.234375 -1.726562 5 -2.4375 5.75 -3.34375 C 5.832031 -3.4375 5.914062 -3.519531 6 -3.59375 C 6.09375 -3.664062 6.164062 -3.703125 6.21875 -3.703125 C 6.300781 -3.703125 6.34375 -3.65625 6.34375 -3.5625 C 6.34375 -3.519531 6.289062 -3.4375 6.1875 -3.3125 C 6.09375 -3.1875 6.015625 -3.085938 5.953125 -3.015625 L 5.421875 -2.40625 C 5.117188 -2.082031 4.765625 -1.726562 4.359375 -1.34375 C 3.953125 -0.957031 3.519531 -0.628906 3.0625 -0.359375 C 2.613281 -0.0859375 2.160156 0.046875 1.703125 0.046875 Z M 1.703125 0.046875 "/></g></g></g><g fill="#000000" fill-opacity="1"><g transform="translate(168.577624, 221.204781)"><g><path d="M 1.140625 0.296875 C 0.660156 0.296875 0.226562 0.144531 -0.15625 -0.15625 C -0.539062 -0.46875 -0.734375 -0.878906 -0.734375 -1.390625 C -0.734375 -2.441406 -0.0859375 -3.644531 1.203125 -5 C 2.523438 -6.363281 3.707031 -7.046875 4.75 -7.046875 C 5.09375 -7.046875 5.367188 -6.953125 5.578125 -6.765625 C 5.796875 -6.585938 5.90625 -6.363281 5.90625 -6.09375 C 5.90625 -5.257812 5.242188 -4.441406 3.921875 -3.640625 C 2.753906 -2.921875 1.765625 -2.5625 0.953125 -2.5625 C 0.835938 -2.5625 0.734375 -2.578125 0.640625 -2.609375 C 0.421875 -2.210938 0.3125 -1.789062 0.3125 -1.34375 C 0.3125 -0.5625 0.675781 -0.171875 1.40625 -0.171875 C 2.144531 -0.171875 3.101562 -0.671875 4.28125 -1.671875 C 5.1875 -2.398438 5.960938 -3.175781 6.609375 -4 C 6.742188 -4.175781 6.863281 -4.265625 6.96875 -4.265625 C 7.050781 -4.265625 7.09375 -4.21875 7.09375 -4.125 C 7.09375 -4.039062 7.035156 -3.914062 6.921875 -3.75 C 6.503906 -3.195312 6.054688 -2.691406 5.578125 -2.234375 C 5.097656 -1.773438 4.582031 -1.347656 4.03125 -0.953125 C 2.894531 -0.117188 1.929688 0.296875 1.140625 0.296875 Z M 1.265625 -3.0625 C 1.835938 -3.0625 2.578125 -3.34375 3.484375 -3.90625 C 3.773438 -4.113281 4.066406 -4.347656 4.359375 -4.609375 C 4.648438 -4.867188 4.890625 -5.128906 5.078125 -5.390625 C 5.265625 -5.660156 5.359375 -5.898438 5.359375 -6.109375 C 5.359375 -6.304688 5.203125 -6.40625 4.890625 -6.40625 C 4.441406 -6.40625 3.816406 -6.070312 3.015625 -5.40625 C 2.628906 -5.070312 2.253906 -4.710938 1.890625 -4.328125 C 1.535156 -3.941406 1.234375 -3.53125 0.984375 -3.09375 C 1.066406 -3.070312 1.160156 -3.0625 1.265625 -3.0625 Z M 1.265625 -3.0625 "/></g></g></g><g fill="#000000" fill-opacity="1"><g transform="translate(174.31196, 221.204781)"><g><path d="M 1.5 0.109375 C 1.132812 0.109375 0.773438 -0.015625 0.421875 -0.265625 C 0.0664062 -0.515625 -0.128906 -0.8125 -0.171875 -1.15625 C -0.328125 -2.300781 0.390625 -3.664062 1.984375 -5.25 C 3.554688 -6.820312 4.976562 -7.609375 6.25 -7.609375 C 6.59375 -7.609375 6.859375 -7.523438 7.046875 -7.359375 C 7.148438 -7.253906 7.226562 -7.113281 7.28125 -6.9375 C 7.332031 -6.757812 7.375 -6.671875 7.40625 -6.671875 C 7.46875 -6.671875 7.519531 -6.679688 7.5625 -6.703125 C 7.601562 -6.722656 7.65625 -6.734375 7.71875 -6.734375 C 7.894531 -6.734375 8.050781 -6.664062 8.1875 -6.53125 C 8.320312 -6.40625 8.394531 -6.289062 8.40625 -6.1875 C 8.425781 -6.15625 7.953125 -5.414062 6.984375 -3.96875 C 6.015625 -2.5625 5.578125 -1.601562 5.671875 -1.09375 C 5.742188 -0.75 5.90625 -0.578125 6.15625 -0.578125 C 6.925781 -0.578125 8.335938 -1.859375 10.390625 -4.421875 C 10.441406 -4.472656 10.488281 -4.5 10.53125 -4.5 C 10.601562 -4.5 10.640625 -4.445312 10.640625 -4.34375 C 10.640625 -4.226562 10.570312 -4.082031 10.4375 -3.90625 C 8.550781 -1.363281 7.101562 -0.09375 6.09375 -0.09375 C 5.957031 -0.09375 5.832031 -0.113281 5.71875 -0.15625 C 5.0625 -0.40625 4.734375 -0.894531 4.734375 -1.625 C 4.734375 -1.882812 4.757812 -2.140625 4.8125 -2.390625 L 3.4375 -1.046875 C 3.019531 -0.628906 2.644531 -0.332031 2.3125 -0.15625 C 1.976562 0.0195312 1.707031 0.109375 1.5 0.109375 Z M 1.296875 -0.375 C 2.160156 -0.375 3.332031 -1.320312 4.8125 -3.21875 L 7.1875 -6.46875 C 7.0625 -6.675781 6.867188 -6.78125 6.609375 -6.78125 C 5.703125 -6.78125 4.472656 -6.050781 2.921875 -4.59375 C 1.316406 -3.101562 0.597656 -1.878906 0.765625 -0.921875 C 0.835938 -0.554688 1.015625 -0.375 1.296875 -0.375 Z M 1.296875 -0.375 "/></g></g></g><g fill="#000000" fill-opacity="1"><g transform="translate(183.504747, 221.204781)"><g><path d="M 5.6875 0.046875 C 5.289062 0.046875 5.007812 -0.0664062 4.84375 -0.296875 C 4.675781 -0.523438 4.59375 -0.8125 4.59375 -1.15625 C 4.59375 -2.019531 4.890625 -2.941406 5.484375 -3.921875 L 6.921875 -6.25 C 5.910156 -5.5 4.90625 -4.566406 3.90625 -3.453125 C 3.632812 -3.160156 3.332031 -2.8125 3 -2.40625 C 2.664062 -2.007812 2.296875 -1.550781 1.890625 -1.03125 C 1.359375 -0.332031 1.039062 0.015625 0.9375 0.015625 C 0.726562 0.015625 0.554688 -0.0703125 0.421875 -0.25 C 0.285156 -0.4375 0.21875 -0.609375 0.21875 -0.765625 C 0.21875 -0.878906 0.253906 -1.09375 0.328125 -1.40625 C 0.410156 -1.726562 0.503906 -2.007812 0.609375 -2.25 C 0.710938 -2.507812 0.816406 -2.757812 0.921875 -3 C 1.035156 -3.25 1.144531 -3.488281 1.25 -3.71875 L -0.09375 -2.328125 C -0.125 -2.296875 -0.210938 -2.203125 -0.359375 -2.046875 C -0.503906 -1.898438 -0.625 -1.828125 -0.71875 -1.828125 C -0.789062 -1.828125 -0.828125 -1.878906 -0.828125 -1.984375 C -0.828125 -2.015625 -0.816406 -2.054688 -0.796875 -2.109375 C -0.773438 -2.160156 -0.722656 -2.222656 -0.640625 -2.296875 C -0.421875 -2.523438 -0.191406 -2.765625 0.046875 -3.015625 C 0.285156 -3.265625 0.53125 -3.550781 0.78125 -3.875 C 0.914062 -4.039062 1.113281 -4.289062 1.375 -4.625 C 1.644531 -4.957031 1.941406 -5.316406 2.265625 -5.703125 C 2.585938 -6.097656 2.890625 -6.457031 3.171875 -6.78125 C 3.242188 -6.882812 3.320312 -6.953125 3.40625 -6.984375 C 3.5 -7.023438 3.5625 -7.046875 3.59375 -7.046875 C 3.988281 -7.046875 4.1875 -6.890625 4.1875 -6.578125 C 4.1875 -6.492188 4.164062 -6.40625 4.125 -6.3125 C 2.789062 -4.46875 1.988281 -3.0625 1.71875 -2.09375 C 3.445312 -3.820312 4.832031 -5.117188 5.875 -5.984375 C 6.925781 -6.859375 7.675781 -7.296875 8.125 -7.296875 C 8.363281 -7.296875 8.546875 -7.257812 8.671875 -7.1875 C 8.796875 -7.113281 8.859375 -6.972656 8.859375 -6.765625 C 8.859375 -6.691406 8.847656 -6.628906 8.828125 -6.578125 C 8.785156 -6.472656 8.484375 -6.054688 7.921875 -5.328125 C 7.578125 -4.910156 7.273438 -4.53125 7.015625 -4.1875 C 6.753906 -3.851562 6.539062 -3.554688 6.375 -3.296875 C 6.113281 -2.878906 5.914062 -2.488281 5.78125 -2.125 C 5.644531 -1.757812 5.578125 -1.453125 5.578125 -1.203125 C 5.578125 -1.097656 5.59375 -0.972656 5.625 -0.828125 C 5.65625 -0.679688 5.742188 -0.609375 5.890625 -0.609375 C 6.234375 -0.609375 6.769531 -0.90625 7.5 -1.5 C 7.84375 -1.789062 8.160156 -2.085938 8.453125 -2.390625 C 8.753906 -2.703125 9.035156 -3.003906 9.296875 -3.296875 C 9.359375 -3.359375 9.457031 -3.472656 9.59375 -3.640625 C 9.726562 -3.816406 9.8125 -3.90625 9.84375 -3.90625 C 9.894531 -3.90625 9.921875 -3.84375 9.921875 -3.71875 C 9.921875 -3.664062 9.890625 -3.566406 9.828125 -3.421875 C 9.765625 -3.285156 9.691406 -3.175781 9.609375 -3.09375 C 9.453125 -2.90625 9.210938 -2.640625 8.890625 -2.296875 C 8.566406 -1.953125 8.207031 -1.601562 7.8125 -1.25 C 7.425781 -0.894531 7.046875 -0.585938 6.671875 -0.328125 C 6.296875 -0.078125 5.96875 0.046875 5.6875 0.046875 Z M 5.6875 0.046875 "/></g></g></g><g fill="#000000" fill-opacity="1"><g transform="translate(192.496713, 221.204781)"><g><path d="M 4.9375 -7.671875 C 4.675781 -7.671875 4.453125 -7.753906 4.265625 -7.921875 C 4.085938 -8.085938 4 -8.273438 4 -8.484375 C 4 -8.898438 4.28125 -9.109375 4.84375 -9.109375 C 5.050781 -9.109375 5.257812 -9.035156 5.46875 -8.890625 C 5.675781 -8.742188 5.78125 -8.566406 5.78125 -8.359375 C 5.78125 -8.179688 5.679688 -8.019531 5.484375 -7.875 C 5.296875 -7.738281 5.113281 -7.671875 4.9375 -7.671875 Z M 0.796875 0.25 C 0.472656 0.25 0.207031 0.140625 0 -0.078125 C -0.21875 -0.296875 -0.328125 -0.679688 -0.328125 -1.234375 C -0.328125 -1.546875 -0.253906 -1.90625 -0.109375 -2.3125 C 0.0234375 -2.71875 0.195312 -3.128906 0.40625 -3.546875 C 0.625 -3.960938 0.835938 -4.332031 1.046875 -4.65625 C 1.878906 -6.007812 2.5625 -6.695312 3.09375 -6.71875 C 3.226562 -6.71875 3.390625 -6.660156 3.578125 -6.546875 C 3.773438 -6.429688 3.875 -6.3125 3.875 -6.1875 C 3.875 -6.1875 3.3125 -5.457031 2.1875 -4 C 1.070312 -2.550781 0.515625 -1.523438 0.515625 -0.921875 C 0.515625 -0.441406 0.703125 -0.203125 1.078125 -0.203125 C 1.304688 -0.203125 1.609375 -0.300781 1.984375 -0.5 C 2.367188 -0.695312 2.769531 -0.953125 3.1875 -1.265625 C 3.601562 -1.578125 4 -1.910156 4.375 -2.265625 C 4.757812 -2.628906 5.070312 -2.957031 5.3125 -3.25 C 5.457031 -3.445312 5.585938 -3.582031 5.703125 -3.65625 C 5.816406 -3.726562 5.882812 -3.765625 5.90625 -3.765625 C 5.96875 -3.765625 6 -3.722656 6 -3.640625 C 6 -3.566406 5.910156 -3.414062 5.734375 -3.1875 C 5.566406 -2.96875 5.335938 -2.707031 5.046875 -2.40625 C 4.679688 -2.050781 4.285156 -1.664062 3.859375 -1.25 C 3.429688 -0.832031 2.960938 -0.476562 2.453125 -0.1875 C 1.953125 0.101562 1.398438 0.25 0.796875 0.25 Z M 0.796875 0.25 "/></g></g></g><g fill="#000000" fill-opacity="1"><g transform="translate(197.539357, 221.204781)"><g><path d="M 5.6875 0.046875 C 5.289062 0.046875 5.007812 -0.0664062 4.84375 -0.296875 C 4.675781 -0.523438 4.59375 -0.8125 4.59375 -1.15625 C 4.59375 -2.019531 4.890625 -2.941406 5.484375 -3.921875 L 6.921875 -6.25 C 5.910156 -5.5 4.90625 -4.566406 3.90625 -3.453125 C 3.632812 -3.160156 3.332031 -2.8125 3 -2.40625 C 2.664062 -2.007812 2.296875 -1.550781 1.890625 -1.03125 C 1.359375 -0.332031 1.039062 0.015625 0.9375 0.015625 C 0.726562 0.015625 0.554688 -0.0703125 0.421875 -0.25 C 0.285156 -0.4375 0.21875 -0.609375 0.21875 -0.765625 C 0.21875 -0.878906 0.253906 -1.09375 0.328125 -1.40625 C 0.410156 -1.726562 0.503906 -2.007812 0.609375 -2.25 C 0.710938 -2.507812 0.816406 -2.757812 0.921875 -3 C 1.035156 -3.25 1.144531 -3.488281 1.25 -3.71875 L -0.09375 -2.328125 C -0.125 -2.296875 -0.210938 -2.203125 -0.359375 -2.046875 C -0.503906 -1.898438 -0.625 -1.828125 -0.71875 -1.828125 C -0.789062 -1.828125 -0.828125 -1.878906 -0.828125 -1.984375 C -0.828125 -2.015625 -0.816406 -2.054688 -0.796875 -2.109375 C -0.773438 -2.160156 -0.722656 -2.222656 -0.640625 -2.296875 C -0.421875 -2.523438 -0.191406 -2.765625 0.046875 -3.015625 C 0.285156 -3.265625 0.53125 -3.550781 0.78125 -3.875 C 0.914062 -4.039062 1.113281 -4.289062 1.375 -4.625 C 1.644531 -4.957031 1.941406 -5.316406 2.265625 -5.703125 C 2.585938 -6.097656 2.890625 -6.457031 3.171875 -6.78125 C 3.242188 -6.882812 3.320312 -6.953125 3.40625 -6.984375 C 3.5 -7.023438 3.5625 -7.046875 3.59375 -7.046875 C 3.988281 -7.046875 4.1875 -6.890625 4.1875 -6.578125 C 4.1875 -6.492188 4.164062 -6.40625 4.125 -6.3125 C 2.789062 -4.46875 1.988281 -3.0625 1.71875 -2.09375 C 3.445312 -3.820312 4.832031 -5.117188 5.875 -5.984375 C 6.925781 -6.859375 7.675781 -7.296875 8.125 -7.296875 C 8.363281 -7.296875 8.546875 -7.257812 8.671875 -7.1875 C 8.796875 -7.113281 8.859375 -6.972656 8.859375 -6.765625 C 8.859375 -6.691406 8.847656 -6.628906 8.828125 -6.578125 C 8.785156 -6.472656 8.484375 -6.054688 7.921875 -5.328125 C 7.578125 -4.910156 7.273438 -4.53125 7.015625 -4.1875 C 6.753906 -3.851562 6.539062 -3.554688 6.375 -3.296875 C 6.113281 -2.878906 5.914062 -2.488281 5.78125 -2.125 C 5.644531 -1.757812 5.578125 -1.453125 5.578125 -1.203125 C 5.578125 -1.097656 5.59375 -0.972656 5.625 -0.828125 C 5.65625 -0.679688 5.742188 -0.609375 5.890625 -0.609375 C 6.234375 -0.609375 6.769531 -0.90625 7.5 -1.5 C 7.84375 -1.789062 8.160156 -2.085938 8.453125 -2.390625 C 8.753906 -2.703125 9.035156 -3.003906 9.296875 -3.296875 C 9.359375 -3.359375 9.457031 -3.472656 9.59375 -3.640625 C 9.726562 -3.816406 9.8125 -3.90625 9.84375 -3.90625 C 9.894531 -3.90625 9.921875 -3.84375 9.921875 -3.71875 C 9.921875 -3.664062 9.890625 -3.566406 9.828125 -3.421875 C 9.765625 -3.285156 9.691406 -3.175781 9.609375 -3.09375 C 9.453125 -2.90625 9.210938 -2.640625 8.890625 -2.296875 C 8.566406 -1.953125 8.207031 -1.601562 7.8125 -1.25 C 7.425781 -0.894531 7.046875 -0.585938 6.671875 -0.328125 C 6.296875 -0.078125 5.96875 0.046875 5.6875 0.046875 Z M 5.6875 0.046875 "/></g></g></g><g fill="#000000" fill-opacity="1"><g transform="translate(206.531322, 221.204781)"><g><path d="M -0.25 4.578125 C -0.695312 4.578125 -1.078125 4.390625 -1.390625 4.015625 C -1.703125 3.640625 -1.863281 3.238281 -1.875 2.8125 C -1.832031 2.632812 -1.765625 2.546875 -1.671875 2.546875 C -1.585938 2.546875 -1.535156 2.660156 -1.515625 2.890625 C -1.503906 3.117188 -1.382812 3.34375 -1.15625 3.5625 C -0.9375 3.789062 -0.722656 3.90625 -0.515625 3.90625 C 0.347656 3.90625 1.253906 3.347656 2.203125 2.234375 C 2.546875 1.828125 2.898438 1.351562 3.265625 0.8125 C 3.628906 0.269531 3.984375 -0.34375 4.328125 -1.03125 L 5.4375 -3.234375 L 3.765625 -1.546875 C 3.242188 -1.023438 2.796875 -0.632812 2.421875 -0.375 C 2.046875 -0.125 1.753906 0 1.546875 0 C 1.179688 0 0.820312 -0.128906 0.46875 -0.390625 C 0.113281 -0.648438 -0.0859375 -0.953125 -0.140625 -1.296875 C -0.285156 -2.441406 0.4375 -3.800781 2.03125 -5.375 C 3.625 -6.9375 5.046875 -7.71875 6.296875 -7.71875 C 6.640625 -7.71875 6.90625 -7.632812 7.09375 -7.46875 C 7.195312 -7.382812 7.273438 -7.253906 7.328125 -7.078125 C 7.378906 -6.898438 7.421875 -6.8125 7.453125 -6.8125 C 7.515625 -6.8125 7.566406 -6.820312 7.609375 -6.84375 C 7.648438 -6.863281 7.703125 -6.875 7.765625 -6.875 C 7.960938 -6.875 8.125 -6.804688 8.25 -6.671875 C 8.375 -6.535156 8.410156 -6.398438 8.359375 -6.265625 C 8.347656 -6.128906 8.132812 -5.726562 7.71875 -5.0625 C 7.445312 -4.613281 7.140625 -4.070312 6.796875 -3.4375 C 6.460938 -2.8125 6.101562 -2.160156 5.71875 -1.484375 C 5.34375 -0.804688 4.972656 -0.175781 4.609375 0.40625 C 4.253906 1 3.9375 1.484375 3.65625 1.859375 C 2.289062 3.671875 0.988281 4.578125 -0.25 4.578125 Z M 1.34375 -0.515625 C 2.207031 -0.515625 3.378906 -1.457031 4.859375 -3.34375 L 7.234375 -6.609375 C 7.140625 -6.816406 6.953125 -6.921875 6.671875 -6.921875 C 5.742188 -6.921875 4.507812 -6.191406 2.96875 -4.734375 C 1.363281 -3.210938 0.640625 -1.984375 0.796875 -1.046875 C 0.878906 -0.691406 1.0625 -0.515625 1.34375 -0.515625 Z M 1.34375 -0.515625 "/></g></g></g><g fill="#000000" fill-opacity="1"><g transform="translate(214.786975, 221.204781)"><g/></g></g><g fill="#000000" fill-opacity="1"><g transform="translate(219.204863, 221.204781)"><g><path d="M 6.21875 2.125 C 5.613281 2.125 4.859375 1.757812 3.953125 1.03125 C 3.304688 0.925781 2.753906 0.785156 2.296875 0.609375 C 1.847656 0.441406 1.476562 0.238281 1.1875 0 C 0.769531 -0.351562 0.40625 -0.828125 0.09375 -1.421875 C -0.21875 -2.023438 -0.375 -2.597656 -0.375 -3.140625 C -0.375 -3.554688 -0.28125 -3.929688 -0.09375 -4.265625 C 0.351562 -5.046875 0.921875 -5.4375 1.609375 -5.4375 C 2.128906 -5.4375 2.429688 -5 2.515625 -4.125 C 2.617188 -3.3125 2.703125 -2.660156 2.765625 -2.171875 C 2.835938 -1.691406 2.894531 -1.378906 2.9375 -1.234375 C 3.164062 -0.503906 3.546875 0.113281 4.078125 0.625 C 4.703125 0.757812 5.378906 0.828125 6.109375 0.828125 C 7.710938 0.828125 9.253906 0.519531 10.734375 -0.09375 C 11.359375 -0.351562 11.96875 -0.695312 12.5625 -1.125 C 13.15625 -1.5625 13.644531 -2.039062 14.03125 -2.5625 C 14.414062 -3.082031 14.609375 -3.585938 14.609375 -4.078125 C 14.609375 -4.773438 13.992188 -5.320312 12.765625 -5.71875 L 8.828125 -6.609375 C 8.023438 -6.785156 7.382812 -7.097656 6.90625 -7.546875 C 6.425781 -8.003906 6.1875 -8.523438 6.1875 -9.109375 C 6.1875 -9.992188 6.742188 -10.882812 7.859375 -11.78125 C 8.421875 -12.238281 9.082031 -12.628906 9.84375 -12.953125 C 10.601562 -13.273438 11.398438 -13.519531 12.234375 -13.6875 C 13.078125 -13.851562 13.882812 -13.9375 14.65625 -13.9375 C 15.757812 -13.9375 16.703125 -13.765625 17.484375 -13.421875 C 18.265625 -13.085938 18.75 -12.59375 18.9375 -11.9375 C 18.988281 -11.789062 19.015625 -11.628906 19.015625 -11.453125 C 19.015625 -10.535156 18.5625 -9.898438 17.65625 -9.546875 C 17.101562 -9.328125 16.632812 -9.21875 16.25 -9.21875 C 16.007812 -9.21875 15.820312 -9.257812 15.6875 -9.34375 C 15.65625 -9.375 15.640625 -9.410156 15.640625 -9.453125 C 15.640625 -9.554688 15.847656 -9.617188 16.265625 -9.640625 C 16.515625 -9.648438 16.722656 -9.671875 16.890625 -9.703125 C 17.054688 -9.734375 17.175781 -9.765625 17.25 -9.796875 C 17.8125 -10.085938 18.09375 -10.523438 18.09375 -11.109375 C 18.09375 -11.410156 18.007812 -11.722656 17.84375 -12.046875 C 17.382812 -12.898438 16.234375 -13.328125 14.390625 -13.328125 C 13.722656 -13.328125 13.03125 -13.253906 12.3125 -13.109375 C 11.601562 -12.960938 10.925781 -12.753906 10.28125 -12.484375 C 9.644531 -12.210938 9.101562 -11.867188 8.65625 -11.453125 C 7.882812 -10.734375 7.5 -10.09375 7.5 -9.53125 C 7.5 -9.09375 7.707031 -8.707031 8.125 -8.375 C 8.550781 -8.039062 9.195312 -7.789062 10.0625 -7.625 L 12.703125 -7.140625 C 13.710938 -6.941406 14.53125 -6.65625 15.15625 -6.28125 C 15.78125 -5.90625 16.09375 -5.328125 16.09375 -4.546875 C 16.09375 -3.867188 15.921875 -3.226562 15.578125 -2.625 C 15.234375 -2.03125 14.773438 -1.5 14.203125 -1.03125 C 13.628906 -0.5625 12.976562 -0.171875 12.25 0.140625 C 10.59375 0.867188 8.644531 1.234375 6.40625 1.234375 C 6.125 1.234375 5.835938 1.222656 5.546875 1.203125 C 5.265625 1.191406 4.992188 1.171875 4.734375 1.140625 C 4.941406 1.253906 5.203125 1.367188 5.515625 1.484375 C 5.835938 1.609375 6.207031 1.722656 6.625 1.828125 C 6.664062 1.847656 6.6875 1.878906 6.6875 1.921875 C 6.6875 2.054688 6.53125 2.125 6.21875 2.125 Z M 3.28125 0.40625 C 2.875 -0.0390625 2.5625 -0.503906 2.34375 -0.984375 C 2.019531 -1.722656 1.773438 -2.632812 1.609375 -3.71875 C 1.484375 -4.507812 1.359375 -4.90625 1.234375 -4.90625 C 1.109375 -4.90625 0.945312 -4.816406 0.75 -4.640625 C 0.550781 -4.460938 0.453125 -4.082031 0.453125 -3.5 C 0.453125 -2.375 0.851562 -1.394531 1.65625 -0.5625 C 2.050781 -0.144531 2.59375 0.175781 3.28125 0.40625 Z M 3.28125 0.40625 "/></g></g></g><g fill="#000000" fill-opacity="1"><g transform="translate(235.894674, 221.204781)"><g><path d="M 1.140625 0.296875 C 0.660156 0.296875 0.226562 0.144531 -0.15625 -0.15625 C -0.539062 -0.46875 -0.734375 -0.878906 -0.734375 -1.390625 C -0.734375 -2.441406 -0.0859375 -3.644531 1.203125 -5 C 2.523438 -6.363281 3.707031 -7.046875 4.75 -7.046875 C 5.09375 -7.046875 5.367188 -6.953125 5.578125 -6.765625 C 5.796875 -6.585938 5.90625 -6.363281 5.90625 -6.09375 C 5.90625 -5.257812 5.242188 -4.441406 3.921875 -3.640625 C 2.753906 -2.921875 1.765625 -2.5625 0.953125 -2.5625 C 0.835938 -2.5625 0.734375 -2.578125 0.640625 -2.609375 C 0.421875 -2.210938 0.3125 -1.789062 0.3125 -1.34375 C 0.3125 -0.5625 0.675781 -0.171875 1.40625 -0.171875 C 2.144531 -0.171875 3.101562 -0.671875 4.28125 -1.671875 C 5.1875 -2.398438 5.960938 -3.175781 6.609375 -4 C 6.742188 -4.175781 6.863281 -4.265625 6.96875 -4.265625 C 7.050781 -4.265625 7.09375 -4.21875 7.09375 -4.125 C 7.09375 -4.039062 7.035156 -3.914062 6.921875 -3.75 C 6.503906 -3.195312 6.054688 -2.691406 5.578125 -2.234375 C 5.097656 -1.773438 4.582031 -1.347656 4.03125 -0.953125 C 2.894531 -0.117188 1.929688 0.296875 1.140625 0.296875 Z M 1.265625 -3.0625 C 1.835938 -3.0625 2.578125 -3.34375 3.484375 -3.90625 C 3.773438 -4.113281 4.066406 -4.347656 4.359375 -4.609375 C 4.648438 -4.867188 4.890625 -5.128906 5.078125 -5.390625 C 5.265625 -5.660156 5.359375 -5.898438 5.359375 -6.109375 C 5.359375 -6.304688 5.203125 -6.40625 4.890625 -6.40625 C 4.441406 -6.40625 3.816406 -6.070312 3.015625 -5.40625 C 2.628906 -5.070312 2.253906 -4.710938 1.890625 -4.328125 C 1.535156 -3.941406 1.234375 -3.53125 0.984375 -3.09375 C 1.066406 -3.070312 1.160156 -3.0625 1.265625 -3.0625 Z M 1.265625 -3.0625 "/></g></g></g><g fill="#000000" fill-opacity="1"><g transform="translate(241.62901, 221.204781)"><g><path d="M 4.546875 0.109375 C 3.910156 0.109375 3.472656 -0.0546875 3.234375 -0.390625 C 2.992188 -0.722656 2.875 -1.171875 2.875 -1.734375 C 2.875 -2.359375 3.066406 -3.101562 3.453125 -3.96875 C 3.609375 -4.3125 3.765625 -4.617188 3.921875 -4.890625 C 4.085938 -5.171875 4.257812 -5.429688 4.4375 -5.671875 C 4.375 -5.648438 4.320312 -5.640625 4.28125 -5.640625 C 4.238281 -5.640625 4.195312 -5.640625 4.15625 -5.640625 C 3.789062 -5.640625 3.488281 -5.894531 3.25 -6.40625 L 1.609375 -4.265625 C 0.734375 -3.117188 0.195312 -2.546875 0 -2.546875 C -0.0703125 -2.546875 -0.109375 -2.578125 -0.109375 -2.640625 C -0.109375 -2.710938 -0.0703125 -2.804688 0 -2.921875 C 0.0390625 -3.015625 0.128906 -3.132812 0.265625 -3.28125 C 0.828125 -3.9375 1.347656 -4.582031 1.828125 -5.21875 C 2.304688 -5.863281 2.703125 -6.488281 3.015625 -7.09375 C 3.359375 -8.382812 3.789062 -9.03125 4.3125 -9.03125 C 4.644531 -9.03125 4.8125 -8.875 4.8125 -8.5625 C 4.8125 -8.28125 4.628906 -7.910156 4.265625 -7.453125 C 3.898438 -6.992188 3.71875 -6.753906 3.71875 -6.734375 C 3.71875 -6.421875 3.953125 -6.265625 4.421875 -6.265625 C 4.679688 -6.265625 4.976562 -6.363281 5.3125 -6.5625 L 5.890625 -6.921875 C 5.921875 -6.929688 5.96875 -6.9375 6.03125 -6.9375 C 6.207031 -6.9375 6.359375 -6.863281 6.484375 -6.71875 C 6.617188 -6.570312 6.664062 -6.4375 6.625 -6.3125 L 5.09375 -4.375 C 4.132812 -3.15625 3.65625 -2.171875 3.65625 -1.421875 C 3.65625 -0.753906 3.984375 -0.421875 4.640625 -0.421875 C 5.085938 -0.421875 5.566406 -0.554688 6.078125 -0.828125 C 6.585938 -1.097656 7.082031 -1.425781 7.5625 -1.8125 C 8.050781 -2.207031 8.460938 -2.59375 8.796875 -2.96875 L 9.328125 -3.59375 C 9.359375 -3.625 9.394531 -3.660156 9.4375 -3.703125 C 9.476562 -3.742188 9.515625 -3.765625 9.546875 -3.765625 C 9.648438 -3.765625 9.703125 -3.710938 9.703125 -3.609375 C 9.703125 -3.578125 9.6875 -3.523438 9.65625 -3.453125 C 9.625 -3.378906 9.570312 -3.300781 9.5 -3.21875 L 8.796875 -2.40625 C 8.453125 -2.019531 8.03125 -1.628906 7.53125 -1.234375 C 7.03125 -0.835938 6.515625 -0.515625 5.984375 -0.265625 C 5.460938 -0.015625 4.984375 0.109375 4.546875 0.109375 Z M 4.546875 0.109375 "/></g></g></g><g fill="#000000" fill-opacity="1"><g transform="translate(250.420167, 221.204781)"><g><path d="M 0.734375 0.0625 C 0.648438 0.0625 0.523438 0.0234375 0.359375 -0.046875 C 0.191406 -0.128906 0.0390625 -0.226562 -0.09375 -0.34375 C -0.226562 -0.457031 -0.300781 -0.554688 -0.3125 -0.640625 C -0.320312 -0.765625 -0.242188 -1.101562 -0.078125 -1.65625 C 0.0859375 -2.21875 0.359375 -2.984375 0.734375 -3.953125 C 1.109375 -4.929688 1.421875 -5.6875 1.671875 -6.21875 C 1.921875 -6.757812 2.109375 -7.082031 2.234375 -7.1875 C 2.296875 -7.25 2.378906 -7.28125 2.484375 -7.28125 C 2.640625 -7.28125 2.789062 -7.207031 2.9375 -7.0625 C 3.09375 -6.914062 3.175781 -6.75 3.1875 -6.5625 C 3.1875 -6.539062 2.816406 -5.660156 2.078125 -3.921875 C 1.347656 -2.242188 1.003906 -1.242188 1.046875 -0.921875 C 1.703125 -1.128906 2.796875 -1.863281 4.328125 -3.125 C 5.253906 -3.894531 5.921875 -4.597656 6.328125 -5.234375 C 6.734375 -5.867188 6.9375 -6.4375 6.9375 -6.9375 C 6.9375 -7.238281 6.863281 -7.507812 6.71875 -7.75 C 6.582031 -8 6.328125 -8.203125 5.953125 -8.359375 C 5.847656 -8.410156 5.796875 -8.476562 5.796875 -8.5625 C 5.796875 -8.695312 5.878906 -8.765625 6.046875 -8.765625 C 6.472656 -8.765625 6.847656 -8.625 7.171875 -8.34375 C 7.492188 -8.0625 7.65625 -7.640625 7.65625 -7.078125 C 7.65625 -6.484375 7.398438 -5.804688 6.890625 -5.046875 C 6.390625 -4.296875 5.671875 -3.5 4.734375 -2.65625 C 3.910156 -1.925781 3.164062 -1.328125 2.5 -0.859375 C 1.84375 -0.398438 1.253906 -0.09375 0.734375 0.0625 Z M 0.734375 0.0625 "/></g></g></g><g fill="#000000" fill-opacity="1"><g transform="translate(257.136257, 221.204781)"><g><path d="M 4.9375 -7.671875 C 4.675781 -7.671875 4.453125 -7.753906 4.265625 -7.921875 C 4.085938 -8.085938 4 -8.273438 4 -8.484375 C 4 -8.898438 4.28125 -9.109375 4.84375 -9.109375 C 5.050781 -9.109375 5.257812 -9.035156 5.46875 -8.890625 C 5.675781 -8.742188 5.78125 -8.566406 5.78125 -8.359375 C 5.78125 -8.179688 5.679688 -8.019531 5.484375 -7.875 C 5.296875 -7.738281 5.113281 -7.671875 4.9375 -7.671875 Z M 0.796875 0.25 C 0.472656 0.25 0.207031 0.140625 0 -0.078125 C -0.21875 -0.296875 -0.328125 -0.679688 -0.328125 -1.234375 C -0.328125 -1.546875 -0.253906 -1.90625 -0.109375 -2.3125 C 0.0234375 -2.71875 0.195312 -3.128906 0.40625 -3.546875 C 0.625 -3.960938 0.835938 -4.332031 1.046875 -4.65625 C 1.878906 -6.007812 2.5625 -6.695312 3.09375 -6.71875 C 3.226562 -6.71875 3.390625 -6.660156 3.578125 -6.546875 C 3.773438 -6.429688 3.875 -6.3125 3.875 -6.1875 C 3.875 -6.1875 3.3125 -5.457031 2.1875 -4 C 1.070312 -2.550781 0.515625 -1.523438 0.515625 -0.921875 C 0.515625 -0.441406 0.703125 -0.203125 1.078125 -0.203125 C 1.304688 -0.203125 1.609375 -0.300781 1.984375 -0.5 C 2.367188 -0.695312 2.769531 -0.953125 3.1875 -1.265625 C 3.601562 -1.578125 4 -1.910156 4.375 -2.265625 C 4.757812 -2.628906 5.070312 -2.957031 5.3125 -3.25 C 5.457031 -3.445312 5.585938 -3.582031 5.703125 -3.65625 C 5.816406 -3.726562 5.882812 -3.765625 5.90625 -3.765625 C 5.96875 -3.765625 6 -3.722656 6 -3.640625 C 6 -3.566406 5.910156 -3.414062 5.734375 -3.1875 C 5.566406 -2.96875 5.335938 -2.707031 5.046875 -2.40625 C 4.679688 -2.050781 4.285156 -1.664062 3.859375 -1.25 C 3.429688 -0.832031 2.960938 -0.476562 2.453125 -0.1875 C 1.953125 0.101562 1.398438 0.25 0.796875 0.25 Z M 0.796875 0.25 "/></g></g></g><g fill="#000000" fill-opacity="1"><g transform="translate(262.178901, 221.204781)"><g><path d="M 1.703125 0.296875 C 1.222656 0.296875 0.789062 0.144531 0.40625 -0.15625 C 0.0195312 -0.46875 -0.171875 -0.878906 -0.171875 -1.390625 C -0.171875 -2.441406 0.472656 -3.644531 1.765625 -5 C 3.085938 -6.363281 4.269531 -7.046875 5.3125 -7.046875 C 5.664062 -7.046875 5.945312 -6.953125 6.15625 -6.765625 C 6.363281 -6.585938 6.46875 -6.363281 6.46875 -6.09375 C 6.46875 -5.71875 6.378906 -5.375 6.203125 -5.0625 C 5.992188 -4.675781 5.695312 -4.484375 5.3125 -4.484375 C 4.925781 -4.484375 4.734375 -4.601562 4.734375 -4.84375 C 4.734375 -5.007812 4.828125 -5.253906 5.015625 -5.578125 C 5.222656 -5.921875 5.328125 -6.097656 5.328125 -6.109375 C 5.328125 -6.140625 5.304688 -6.15625 5.265625 -6.15625 C 4.847656 -6.113281 4.269531 -5.8125 3.53125 -5.25 C 3.195312 -4.988281 2.90625 -4.742188 2.65625 -4.515625 C 2.414062 -4.296875 2.222656 -4.082031 2.078125 -3.875 L 1.203125 -2.609375 C 1.117188 -2.472656 1.023438 -2.238281 0.921875 -1.90625 C 0.828125 -1.582031 0.78125 -1.34375 0.78125 -1.1875 C 0.78125 -0.882812 0.878906 -0.632812 1.078125 -0.4375 C 1.285156 -0.25 1.546875 -0.15625 1.859375 -0.15625 C 2.597656 -0.15625 3.578125 -0.640625 4.796875 -1.609375 C 5.773438 -2.378906 6.5625 -3.160156 7.15625 -3.953125 C 7.238281 -4.035156 7.332031 -4.078125 7.4375 -4.078125 C 7.539062 -4.078125 7.59375 -4.050781 7.59375 -4 C 7.59375 -3.945312 7.550781 -3.867188 7.46875 -3.765625 C 6.65625 -2.679688 5.695312 -1.742188 4.59375 -0.953125 C 3.414062 -0.117188 2.453125 0.296875 1.703125 0.296875 Z M 1.703125 0.296875 "/></g></g></g><g fill="#000000" fill-opacity="1"><g transform="translate(268.493362, 221.204781)"><g><path d="M 1.140625 0.296875 C 0.660156 0.296875 0.226562 0.144531 -0.15625 -0.15625 C -0.539062 -0.46875 -0.734375 -0.878906 -0.734375 -1.390625 C -0.734375 -2.441406 -0.0859375 -3.644531 1.203125 -5 C 2.523438 -6.363281 3.707031 -7.046875 4.75 -7.046875 C 5.09375 -7.046875 5.367188 -6.953125 5.578125 -6.765625 C 5.796875 -6.585938 5.90625 -6.363281 5.90625 -6.09375 C 5.90625 -5.257812 5.242188 -4.441406 3.921875 -3.640625 C 2.753906 -2.921875 1.765625 -2.5625 0.953125 -2.5625 C 0.835938 -2.5625 0.734375 -2.578125 0.640625 -2.609375 C 0.421875 -2.210938 0.3125 -1.789062 0.3125 -1.34375 C 0.3125 -0.5625 0.675781 -0.171875 1.40625 -0.171875 C 2.144531 -0.171875 3.101562 -0.671875 4.28125 -1.671875 C 5.1875 -2.398438 5.960938 -3.175781 6.609375 -4 C 6.742188 -4.175781 6.863281 -4.265625 6.96875 -4.265625 C 7.050781 -4.265625 7.09375 -4.21875 7.09375 -4.125 C 7.09375 -4.039062 7.035156 -3.914062 6.921875 -3.75 C 6.503906 -3.195312 6.054688 -2.691406 5.578125 -2.234375 C 5.097656 -1.773438 4.582031 -1.347656 4.03125 -0.953125 C 2.894531 -0.117188 1.929688 0.296875 1.140625 0.296875 Z M 1.265625 -3.0625 C 1.835938 -3.0625 2.578125 -3.34375 3.484375 -3.90625 C 3.773438 -4.113281 4.066406 -4.347656 4.359375 -4.609375 C 4.648438 -4.867188 4.890625 -5.128906 5.078125 -5.390625 C 5.265625 -5.660156 5.359375 -5.898438 5.359375 -6.109375 C 5.359375 -6.304688 5.203125 -6.40625 4.890625 -6.40625 C 4.441406 -6.40625 3.816406 -6.070312 3.015625 -5.40625 C 2.628906 -5.070312 2.253906 -4.710938 1.890625 -4.328125 C 1.535156 -3.941406 1.234375 -3.53125 0.984375 -3.09375 C 1.066406 -3.070312 1.160156 -3.0625 1.265625 -3.0625 Z M 1.265625 -3.0625 "/></g></g></g><g fill="#000000" fill-opacity="1"><g transform="translate(274.227698, 221.204781)"><g><path d="M 2.5625 0.046875 C 1.863281 0.046875 1.347656 -0.179688 1.015625 -0.640625 C 0.679688 -1.109375 0.410156 -1.75 0.203125 -2.5625 C -0.0664062 -2.300781 -0.253906 -2.171875 -0.359375 -2.171875 C -0.429688 -2.171875 -0.46875 -2.226562 -0.46875 -2.34375 C -0.46875 -2.4375 -0.429688 -2.519531 -0.359375 -2.59375 C -0.359375 -2.59375 -0.171875 -2.820312 0.203125 -3.28125 C 0.585938 -3.738281 1.234375 -4.382812 2.140625 -5.21875 L 4.953125 -7.859375 C 5.335938 -8.222656 5.644531 -8.5 5.875 -8.6875 C 6.101562 -8.882812 6.269531 -8.984375 6.375 -8.984375 C 6.851562 -8.984375 7.09375 -8.804688 7.09375 -8.453125 C 7.09375 -8.273438 7 -8.066406 6.8125 -7.828125 C 6.65625 -7.648438 6.539062 -7.515625 6.46875 -7.421875 C 6.40625 -7.328125 6.367188 -7.269531 6.359375 -7.25 C 6.085938 -6.789062 5.84375 -5.96875 5.625 -4.78125 C 5.457031 -3.894531 5.3125 -3.171875 5.1875 -2.609375 C 5.070312 -2.046875 4.976562 -1.640625 4.90625 -1.390625 C 5.53125 -1.398438 6.144531 -1.585938 6.75 -1.953125 C 7.363281 -2.328125 8.019531 -2.941406 8.71875 -3.796875 C 8.75 -3.828125 8.796875 -3.867188 8.859375 -3.921875 C 8.921875 -3.984375 8.976562 -4.015625 9.03125 -4.015625 C 9.125 -4.015625 9.171875 -3.976562 9.171875 -3.90625 C 9.171875 -3.832031 9.144531 -3.753906 9.09375 -3.671875 C 9.050781 -3.597656 9.007812 -3.535156 8.96875 -3.484375 C 8.507812 -2.929688 8.078125 -2.476562 7.671875 -2.125 C 7.273438 -1.78125 6.851562 -1.503906 6.40625 -1.296875 C 5.957031 -1.097656 5.425781 -0.929688 4.8125 -0.796875 L 4.109375 -0.328125 C 3.910156 -0.203125 3.675781 -0.109375 3.40625 -0.046875 C 3.144531 0.015625 2.863281 0.046875 2.5625 0.046875 Z M 2.828125 -1.09375 C 3.171875 -1.09375 3.457031 -1.175781 3.6875 -1.34375 C 3.84375 -1.425781 4 -1.671875 4.15625 -2.078125 C 4.3125 -2.492188 4.46875 -3.003906 4.625 -3.609375 C 4.738281 -4.128906 4.828125 -4.640625 4.890625 -5.140625 C 4.960938 -5.640625 5.03125 -6.117188 5.09375 -6.578125 L 5.171875 -7.34375 C 4.828125 -7.09375 4.394531 -6.726562 3.875 -6.25 C 3.351562 -5.769531 2.84375 -5.269531 2.34375 -4.75 C 1.832031 -4.226562 1.503906 -3.84375 1.359375 -3.59375 C 1.210938 -3.351562 1.128906 -3.175781 1.109375 -3.0625 C 1.054688 -2.46875 1.203125 -1.988281 1.546875 -1.625 C 1.898438 -1.269531 2.328125 -1.09375 2.828125 -1.09375 Z M 2.828125 -1.09375 "/></g></g></g><g clip-path="url(#7623e5ae62)"><path fill="#000000" d="M 92.15625 197.839844 C 91.636719 197.742188 91.253906 197.140625 91.445312 196.5625 L 91.460938 196.511719 L 91.523438 196.476562 C 91.957031 196.242188 92.523438 196.300781 92.910156 196.664062 L 92.925781 196.675781 L 92.941406 196.707031 C 93.339844 197.335938 93.128906 198.214844 92.457031 198.613281 C 91.765625 198.988281 90.871094 198.738281 90.46875 198.007812 L 90.429688 197.933594 L 90.433594 197.808594 C 90.453125 197.042969 90.78125 196.296875 91.324219 195.742188 L 91.539062 195.515625 L 91.835938 195.648438 C 92.914062 196.113281 93.796875 197.011719 94.324219 198.011719 C 94.878906 199.015625 95.164062 200.097656 95.363281 201.160156 C 95.722656 203.3125 95.777344 205.40625 96.285156 207.460938 C 97.21875 211.605469 99.261719 215.367188 100.929688 219.285156 C 102.5625 223.195312 103.949219 227.429688 103.804688 231.8125 C 103.660156 236.171875 102.46875 240.324219 101.078125 244.335938 L 100.96875 244.308594 C 101.722656 240.125 102.6875 235.964844 102.644531 231.804688 C 102.632812 227.652344 101.511719 223.585938 100.0625 219.617188 C 98.664062 215.625 97.097656 211.660156 95.863281 207.570312 C 95.199219 205.535156 94.894531 203.375 94.421875 201.359375 C 93.960938 199.367188 93.222656 197.332031 91.453125 196.484375 L 91.964844 196.390625 C 91.5625 196.765625 91.300781 197.304688 91.230469 197.863281 L 91.195312 197.664062 C 91.296875 197.980469 91.816406 198.199219 92.152344 198.035156 C 92.5 197.894531 92.703125 197.335938 92.515625 196.957031 L 92.550781 197.003906 C 92.371094 196.769531 91.980469 196.65625 91.671875 196.777344 L 91.753906 196.691406 C 91.582031 197.023438 91.765625 197.566406 92.1875 197.726562 L 92.15625 197.839844 " fill-opacity="1" fill-rule="nonzero"/></g><g clip-path="url(#be874156ba)"><path fill="#000000" d="M 88.085938 192.058594 C 87.683594 191.410156 87.308594 190.792969 86.859375 190.320312 C 86.410156 189.851562 85.871094 189.5625 85.300781 189.4375 C 84.75 189.277344 84.042969 189.433594 83.652344 190.03125 C 83.253906 190.613281 83.28125 191.382812 83.554688 192.003906 C 84.144531 193.246094 85.105469 194.292969 86.191406 195.101562 C 87.261719 195.953125 88.496094 196.597656 89.925781 197.058594 L 89.921875 197.175781 C 88.402344 197.4375 86.761719 196.992188 85.464844 196.085938 C 84.8125 195.625 84.273438 195.019531 83.828125 194.363281 C 83.375 193.71875 83.046875 192.964844 82.945312 192.160156 C 82.839844 191.359375 82.964844 190.542969 83.335938 189.84375 C 83.515625 189.496094 83.761719 189.148438 84.117188 188.890625 C 84.480469 188.636719 84.933594 188.488281 85.390625 188.496094 C 86.292969 188.507812 87.105469 189.082031 87.554688 189.777344 C 88.019531 190.472656 88.183594 191.261719 88.195312 192.027344 L 88.085938 192.058594 " fill-opacity="1" fill-rule="nonzero"/></g><path fill="#000000" d="M 93.121094 196.847656 C 92.71875 195.785156 92.519531 194.648438 92.492188 193.503906 C 92.484375 192.324219 92.558594 191.382812 92.089844 190.519531 C 91.605469 189.621094 90.917969 188.675781 90.105469 187.960938 C 89.277344 187.230469 88.300781 186.695312 87.300781 186.261719 L 87.859375 186.027344 C 87.566406 187.8125 88.359375 189.667969 88.714844 191.617188 C 88.917969 192.570312 89.0625 193.59375 89.230469 194.511719 C 89.414062 195.414062 89.695312 196.355469 90.585938 196.792969 L 90.554688 196.902344 C 90.035156 196.867188 89.523438 196.550781 89.179688 196.136719 C 88.839844 195.71875 88.59375 195.242188 88.398438 194.757812 C 88.039062 193.765625 87.804688 192.851562 87.550781 191.886719 C 87.304688 190.921875 87.101562 189.972656 86.945312 188.957031 C 86.796875 187.960938 86.730469 186.851562 87.113281 185.824219 L 87.300781 185.332031 L 87.675781 185.585938 C 88.621094 186.234375 89.476562 186.976562 90.332031 187.703125 C 91.171875 188.460938 92.074219 189.105469 92.835938 190.046875 C 93.226562 190.519531 93.464844 191.203125 93.492188 191.8125 C 93.511719 192.429688 93.449219 192.996094 93.398438 193.53125 C 93.304688 194.609375 93.257812 195.699219 93.230469 196.832031 L 93.121094 196.847656 " fill-opacity="1" fill-rule="nonzero"/><path fill="#000000" d="M 91.089844 195.714844 C 90.753906 195.328125 90.652344 195.058594 90.722656 194.75 C 90.785156 194.601562 90.949219 194.425781 90.964844 194.261719 C 90.976562 194.089844 90.875 193.945312 90.742188 193.820312 C 90.441406 193.578125 90.28125 193.339844 90.148438 193.082031 C 90.0625 192.789062 90.03125 192.488281 90.117188 192 L 90.207031 191.929688 C 90.707031 191.964844 91.03125 192.230469 91.238281 192.539062 C 91.402344 192.875 91.476562 193.261719 91.347656 193.664062 C 91.292969 193.859375 91.257812 194.039062 91.328125 194.203125 C 91.386719 194.363281 91.585938 194.519531 91.671875 194.703125 C 91.777344 195.058594 91.644531 195.457031 91.203125 195.730469 L 91.089844 195.714844 " fill-opacity="1" fill-rule="nonzero"/><path fill="#000000" d="M 85.820312 192.648438 C 86.332031 192.882812 86.601562 193.132812 86.742188 193.5 C 86.792969 193.695312 86.765625 193.960938 86.871094 194.140625 C 86.972656 194.324219 87.167969 194.421875 87.375 194.484375 C 87.816406 194.585938 88.148438 194.75 88.46875 194.9375 C 88.765625 195.171875 89.035156 195.441406 89.316406 195.914062 L 89.277344 196.027344 C 88.765625 196.25 88.273438 196.171875 87.851562 195.984375 C 87.457031 195.75 87.113281 195.410156 86.949219 194.941406 C 86.859375 194.714844 86.765625 194.515625 86.59375 194.378906 C 86.425781 194.242188 86.148438 194.1875 85.960938 194.039062 C 85.628906 193.71875 85.5 193.222656 85.714844 192.6875 L 85.820312 192.648438 " fill-opacity="1" fill-rule="nonzero"/><g clip-path="url(#861a27a064)"><path fill="#000000" d="M 108.285156 155.664062 C 109.253906 154.859375 110.320312 154.167969 111.464844 153.621094 C 112.035156 153.347656 112.625 153.113281 113.230469 152.910156 C 113.804688 152.746094 114.492188 152.421875 115.222656 152.804688 C 115.558594 153 115.765625 153.414062 115.757812 153.785156 C 115.761719 154.15625 115.65625 154.488281 115.523438 154.796875 C 115.242188 155.425781 114.855469 155.90625 114.527344 156.441406 L 112.472656 159.601562 L 108.363281 165.910156 C 107.675781 166.949219 106.988281 168.042969 106.097656 169.003906 C 105.230469 169.964844 104.042969 170.824219 102.621094 170.988281 L 101.953125 171.066406 L 102.121094 170.40625 C 103.351562 165.632812 104.800781 160.910156 106.550781 156.296875 C 106.964844 155.15625 107.472656 153.96875 107.847656 152.878906 C 108.011719 152.339844 108.09375 151.78125 107.957031 151.359375 C 107.820312 150.941406 107.4375 150.679688 106.941406 150.648438 C 105.917969 150.582031 104.847656 151.277344 103.929688 151.992188 C 103 152.742188 102.15625 153.628906 101.230469 154.46875 C 100.3125 155.296875 99.265625 156.117188 97.980469 156.433594 C 97.355469 156.605469 96.667969 156.601562 96.042969 156.503906 C 95.410156 156.402344 94.820312 156.21875 94.230469 156.085938 C 93.644531 155.945312 93.054688 155.863281 92.492188 155.957031 C 91.929688 156.046875 91.417969 156.34375 91.027344 156.761719 C 90.222656 157.613281 89.949219 158.859375 90.148438 160.023438 C 90.34375 161.199219 90.90625 162.300781 91.582031 163.304688 C 92.265625 164.304688 93.082031 165.21875 93.984375 166.035156 C 95.789062 167.679688 97.867188 168.992188 99.949219 170.296875 L 99.703125 170.648438 C 97.90625 169.332031 96.074219 168.0625 94.210938 166.847656 C 93.277344 166.238281 92.335938 165.644531 91.386719 165.0625 C 90.433594 164.492188 89.496094 163.871094 88.515625 163.476562 C 87.535156 163.070312 86.46875 162.984375 85.585938 163.441406 C 84.679688 163.871094 84.261719 164.839844 84.613281 165.75 C 84.929688 166.671875 85.753906 167.328125 86.722656 167.734375 C 87.6875 168.144531 88.789062 168.433594 89.84375 168.78125 C 91.972656 169.433594 94.09375 170.085938 96.25 170.5625 C 97.320312 170.808594 98.382812 171.011719 99.308594 170.796875 C 99.542969 170.742188 99.757812 170.664062 99.957031 170.554688 C 100.171875 170.4375 100.414062 170.273438 100.734375 170.132812 C 101.03125 169.996094 101.574219 169.863281 102.046875 170.148438 C 102.519531 170.445312 102.675781 170.910156 102.699219 171.316406 C 102.734375 172.222656 102.097656 172.878906 101.40625 173.148438 C 101.046875 173.285156 100.621094 173.324219 100.207031 173.191406 C 99.792969 173.070312 99.433594 172.75 99.246094 172.386719 C 98.882812 171.652344 98.957031 170.820312 99.464844 170.15625 C 100.042969 169.457031 101.039062 169.410156 101.691406 169.707031 C 102.359375 169.976562 102.894531 170.5625 103.15625 171.164062 C 103.433594 171.769531 103.535156 172.386719 103.617188 172.945312 L 104.097656 176.261719 L 105.988281 189.515625 C 106.292969 191.726562 106.609375 193.925781 106.863281 196.164062 C 107.121094 198.398438 107.15625 200.71875 106.785156 202.960938 C 106.4375 205.203125 105.839844 207.359375 105.359375 209.527344 C 104.863281 211.695312 104.4375 213.882812 104.082031 216.078125 C 103.382812 220.472656 102.847656 224.902344 102.628906 229.359375 L 102.519531 229.355469 C 102.582031 224.890625 102.851562 220.414062 103.5 215.988281 C 103.816406 213.773438 104.195312 211.566406 104.640625 209.371094 C 105.082031 207.175781 105.628906 205.015625 105.917969 202.835938 C 106.582031 198.484375 105.441406 194.097656 104.859375 189.679688 L 102.914062 176.429688 L 102.429688 173.125 C 102.28125 172.046875 101.980469 171.117188 101.226562 170.8125 C 100.871094 170.65625 100.53125 170.722656 100.375 170.914062 C 100.1875 171.125 100.136719 171.582031 100.28125 171.84375 C 100.40625 172.09375 100.664062 172.179688 101.003906 172.070312 C 101.335938 171.953125 101.59375 171.617188 101.566406 171.378906 C 101.570312 171.234375 101.484375 171.117188 101.472656 171.121094 C 101.449219 171.101562 101.382812 171.085938 101.171875 171.164062 C 100.976562 171.246094 100.757812 171.386719 100.480469 171.535156 C 100.1875 171.691406 99.871094 171.800781 99.558594 171.871094 C 98.285156 172.144531 97.097656 171.855469 96.007812 171.609375 C 93.8125 171.09375 91.660156 170.433594 89.542969 169.71875 C 88.484375 169.347656 87.425781 169.054688 86.34375 168.574219 C 85.28125 168.105469 84.195312 167.261719 83.808594 166.015625 C 83.605469 165.417969 83.59375 164.703125 83.875 164.082031 C 84.148438 163.46875 84.671875 163.011719 85.238281 162.742188 C 86.378906 162.171875 87.734375 162.34375 88.785156 162.8125 C 89.871094 163.277344 90.785156 163.925781 91.730469 164.515625 C 92.675781 165.121094 93.605469 165.742188 94.527344 166.371094 C 96.378906 167.628906 98.1875 168.945312 99.960938 170.304688 L 99.714844 170.660156 C 97.648438 169.335938 95.558594 167.992188 93.734375 166.308594 C 92.820312 165.46875 91.996094 164.523438 91.292969 163.5 C 90.59375 162.480469 89.992188 161.347656 89.769531 160.085938 C 89.535156 158.84375 89.820312 157.4375 90.714844 156.472656 C 91.152344 155.992188 91.761719 155.628906 92.410156 155.519531 C 93.066406 155.40625 93.722656 155.492188 94.332031 155.613281 C 95.550781 155.882812 96.71875 156.214844 97.835938 155.871094 C 98.949219 155.5625 99.898438 154.796875 100.765625 153.96875 C 101.644531 153.132812 102.472656 152.210938 103.4375 151.390625 C 103.925781 150.992188 104.433594 150.59375 105.019531 150.296875 C 105.589844 149.96875 106.265625 149.746094 106.996094 149.773438 C 107.726562 149.773438 108.570312 150.273438 108.820312 151.050781 C 109.089844 151.8125 108.933594 152.527344 108.757812 153.152344 C 108.34375 154.394531 107.882812 155.464844 107.46875 156.640625 C 105.800781 161.246094 104.296875 165.910156 103.023438 170.644531 L 102.523438 170.0625 C 103.628906 169.949219 104.636719 169.269531 105.445312 168.394531 C 106.269531 167.519531 106.941406 166.480469 107.652344 165.4375 L 111.917969 159.226562 L 114.050781 156.125 C 114.390625 155.597656 114.800781 155.09375 115.054688 154.582031 C 115.316406 154.070312 115.414062 153.441406 114.988281 153.171875 C 114.574219 152.898438 113.917969 153.085938 113.335938 153.25 C 112.738281 153.421875 112.148438 153.625 111.578125 153.871094 C 110.433594 154.359375 109.351562 154.992188 108.355469 155.753906 L 108.285156 155.664062 " fill-opacity="1" fill-rule="nonzero"/></g><path fill="#000000" d="M 93.039062 168.746094 C 93.730469 168.578125 94.320312 168.660156 94.855469 168.925781 C 95.113281 169.082031 95.335938 169.351562 95.613281 169.46875 C 95.878906 169.601562 96.1875 169.613281 96.492188 169.601562 C 97.125 169.546875 97.707031 169.636719 98.277344 169.773438 C 98.832031 169.96875 99.371094 170.230469 99.875 170.714844 L 99.851562 170.824219 C 99.195312 171.058594 98.574219 171.046875 97.980469 170.953125 C 97.398438 170.804688 96.832031 170.585938 96.324219 170.203125 C 96.0625 170.023438 95.800781 169.867188 95.5 169.824219 C 95.207031 169.769531 94.867188 169.855469 94.558594 169.832031 C 93.960938 169.730469 93.429688 169.421875 93 168.851562 L 93.039062 168.746094 " fill-opacity="1" fill-rule="nonzero"/><path fill="#000000" d="M 101.554688 170.914062 C 101.839844 170.1875 102.246094 169.675781 102.777344 169.269531 C 103.058594 169.082031 103.421875 168.96875 103.671875 168.742188 C 103.925781 168.519531 104.089844 168.210938 104.222656 167.890625 C 104.460938 167.226562 104.78125 166.65625 105.125 166.09375 C 105.515625 165.5625 105.945312 165.058594 106.566406 164.605469 L 106.667969 164.648438 C 106.707031 165.425781 106.484375 166.117188 106.160156 166.738281 C 105.785156 167.332031 105.324219 167.875 104.710938 168.277344 C 104.417969 168.484375 104.144531 168.699219 103.949219 168.984375 C 103.75 169.265625 103.644531 169.640625 103.449219 169.9375 C 103.019531 170.496094 102.40625 170.886719 101.628906 171.003906 L 101.554688 170.914062 " fill-opacity="1" fill-rule="nonzero"/><path fill="#000000" d="M 97.769531 165.6875 C 98.242188 165.996094 98.453125 166.3125 98.507812 166.707031 C 98.507812 166.914062 98.414062 167.167969 98.464844 167.363281 C 98.507812 167.5625 98.660156 167.714844 98.84375 167.84375 C 99.226562 168.085938 99.476562 168.371094 99.703125 168.683594 C 99.878906 169.027344 100.015625 169.394531 100.019531 169.945312 L 99.933594 170.019531 C 99.386719 169.96875 99.003906 169.707031 98.710938 169.386719 C 98.464844 169.03125 98.285156 168.613281 98.289062 168.132812 C 98.277344 167.902344 98.253906 167.6875 98.128906 167.515625 C 98.007812 167.339844 97.761719 167.214844 97.617188 167.039062 C 97.386719 166.667969 97.363281 166.199219 97.65625 165.714844 L 97.769531 165.6875 " fill-opacity="1" fill-rule="nonzero"/><path fill="#000000" d="M 101.371094 170.363281 C 101.1875 169.773438 101.191406 169.339844 101.355469 168.914062 C 101.46875 168.703125 101.679688 168.5 101.734375 168.269531 C 101.796875 168.035156 101.730469 167.792969 101.632812 167.5625 C 101.394531 167.109375 101.28125 166.6875 101.183594 166.253906 C 101.136719 165.808594 101.132812 165.359375 101.277344 164.773438 L 101.382812 164.730469 C 101.917969 165.027344 102.210938 165.496094 102.371094 165.996094 C 102.476562 166.503906 102.472656 167.046875 102.253906 167.554688 C 102.15625 167.808594 102.078125 168.050781 102.105469 168.292969 C 102.117188 168.542969 102.269531 168.816406 102.292969 169.082031 C 102.285156 169.605469 102.023438 170.105469 101.476562 170.40625 L 101.371094 170.363281 " fill-opacity="1" fill-rule="nonzero"/><g clip-path="url(#7807321d49)"><path fill="#000000" d="M 126.222656 182.992188 C 125.792969 181.382812 125.1875 179.738281 123.953125 178.671875 C 123.34375 178.160156 122.613281 177.785156 121.835938 177.628906 C 121.074219 177.460938 120.277344 177.574219 119.796875 178.085938 C 119.300781 178.59375 119.082031 179.402344 118.804688 180.199219 C 118.53125 180.988281 118.28125 181.777344 118.085938 182.578125 C 117.699219 184.164062 117.597656 185.824219 118.199219 187.261719 L 117.464844 187.03125 C 119.8125 185.441406 122.339844 184.128906 124.953125 183.039062 C 125.617188 182.789062 126.242188 182.5 127 182.324219 C 127.375 182.242188 127.78125 182.195312 128.207031 182.28125 C 128.632812 182.359375 129.054688 182.625 129.296875 182.992188 C 130.128906 184.457031 129.683594 186.121094 128.859375 187.300781 C 128.023438 188.515625 126.738281 189.339844 125.398438 189.808594 C 124.046875 190.292969 122.660156 190.527344 121.269531 190.792969 C 120.566406 190.890625 119.839844 190.945312 119.113281 190.8125 C 118.398438 190.695312 117.636719 190.289062 117.285156 189.578125 C 116.925781 188.863281 116.984375 188.085938 117.023438 187.394531 C 117.066406 186.691406 117.121094 185.992188 117.1875 185.285156 C 117.332031 183.886719 117.519531 182.484375 117.765625 181.097656 C 118.007812 179.726562 118.28125 178.339844 117.820312 177.183594 C 117.597656 176.609375 117.214844 176.105469 116.722656 175.855469 C 116.234375 175.597656 115.644531 175.621094 115.101562 175.832031 C 113.976562 176.257812 113.316406 177.417969 113.117188 178.699219 C 112.746094 181.320312 113.230469 184.121094 114.214844 186.613281 C 114.710938 187.847656 115.410156 189.109375 116.164062 190.09375 C 116.34375 190.277344 116.414062 190.300781 116.59375 190.289062 C 116.769531 190.273438 116.992188 190.15625 117.125 189.996094 C 117.410156 189.675781 117.492188 189.054688 117.433594 188.417969 L 117.964844 188.945312 C 117.054688 188.855469 116.210938 188.859375 115.824219 189.363281 C 115.621094 189.621094 115.5625 189.871094 115.683594 190.09375 C 115.75 190.238281 115.902344 190.421875 116.042969 190.691406 C 116.199219 190.96875 116.257812 191.386719 116.179688 191.699219 C 116.023438 192.335938 115.667969 192.714844 115.425781 193.089844 L 114.613281 194.230469 L 112.980469 196.503906 C 111.886719 198.007812 110.777344 199.515625 109.632812 200.988281 C 108.472656 202.457031 107.273438 203.890625 106.042969 205.292969 L 105.953125 205.222656 C 108.203125 202.246094 110.285156 199.164062 112.335938 196.050781 L 113.875 193.722656 L 114.648438 192.554688 C 114.910156 192.15625 115.167969 191.796875 115.214844 191.507812 C 115.238281 191.359375 115.222656 191.292969 115.152344 191.160156 C 115.082031 191.019531 114.925781 190.84375 114.773438 190.570312 C 114.613281 190.300781 114.539062 189.894531 114.597656 189.570312 C 114.65625 189.230469 114.804688 188.941406 114.992188 188.699219 C 115.367188 188.199219 115.984375 187.914062 116.519531 187.835938 C 117.066406 187.742188 117.582031 187.769531 118.050781 187.804688 L 118.542969 187.839844 L 118.574219 188.328125 C 118.625 189.058594 118.636719 189.96875 118 190.753906 C 117.683594 191.121094 117.25 191.378906 116.730469 191.445312 C 116.207031 191.546875 115.570312 191.234375 115.300781 190.878906 C 114.335938 189.648438 113.675781 188.421875 113.105469 187.066406 C 112 184.371094 111.585938 181.433594 112.027344 178.5 C 112.167969 177.765625 112.421875 177.011719 112.867188 176.351562 C 113.316406 175.679688 113.96875 175.144531 114.738281 174.859375 C 115.492188 174.570312 116.4375 174.558594 117.1875 174.996094 C 117.941406 175.414062 118.421875 176.132812 118.679688 176.863281 C 119.21875 178.398438 118.8125 179.90625 118.515625 181.246094 C 118.214844 182.601562 117.960938 183.976562 117.769531 185.355469 C 117.675781 186.046875 117.59375 186.738281 117.523438 187.433594 C 117.457031 188.125 117.390625 188.816406 117.664062 189.386719 C 117.941406 189.960938 118.539062 190.304688 119.191406 190.425781 C 119.84375 190.558594 120.539062 190.519531 121.222656 190.433594 C 122.585938 190.214844 123.976562 189.929688 125.257812 189.4375 C 126.539062 188.949219 127.738281 188.183594 128.4375 187.023438 C 128.792969 186.457031 129.035156 185.824219 129.09375 185.179688 C 129.152344 184.554688 129.042969 183.847656 128.722656 183.402344 C 128.40625 182.96875 127.808594 182.933594 127.1875 183.101562 C 126.585938 183.273438 125.941406 183.597656 125.308594 183.871094 C 122.769531 184.996094 120.34375 186.359375 118.011719 187.863281 L 117.5 188.191406 L 117.277344 187.632812 C 116.589844 185.898438 116.777344 184.019531 117.210938 182.363281 C 117.429688 181.519531 117.707031 180.710938 118 179.914062 C 118.3125 179.144531 118.558594 178.253906 119.277344 177.550781 C 120.023438 176.832031 121.132812 176.78125 121.980469 177.015625 C 122.847656 177.238281 123.65625 177.675781 124.292969 178.304688 C 125.558594 179.582031 126.066406 181.316406 126.332031 182.96875 L 126.222656 182.992188 " fill-opacity="1" fill-rule="nonzero"/></g><path fill="#000000" d="M 115.378906 182.910156 C 115.597656 183.507812 115.617188 183.964844 115.472656 184.421875 C 115.375 184.648438 115.175781 184.878906 115.140625 185.125 C 115.089844 185.375 115.167969 185.625 115.289062 185.855469 C 115.5625 186.316406 115.710938 186.753906 115.84375 187.195312 C 115.882812 187.425781 115.921875 187.65625 115.925781 187.910156 C 115.9375 188.027344 115.949219 188.1875 115.921875 188.285156 C 115.914062 188.324219 115.871094 188.300781 115.78125 188.351562 C 115.683594 188.402344 115.71875 188.46875 115.734375 188.460938 C 115.730469 188.453125 115.828125 188.5 115.832031 188.453125 L 115.777344 188.355469 C 115.785156 188.324219 115.878906 188.3125 115.917969 188.351562 C 115.960938 188.382812 115.976562 188.417969 115.984375 188.449219 C 116.007812 188.503906 116.015625 188.644531 115.851562 188.714844 C 115.628906 188.78125 115.488281 188.632812 115.417969 188.574219 C 115.28125 188.445312 115.203125 188.371094 115.097656 188.253906 C 114.910156 188.039062 114.78125 187.796875 114.679688 187.539062 C 114.527344 187.019531 114.488281 186.453125 114.671875 185.910156 C 114.746094 185.636719 114.804688 185.378906 114.769531 185.121094 C 114.734375 184.867188 114.570312 184.589844 114.527344 184.316406 C 114.5 183.769531 114.738281 183.230469 115.273438 182.875 L 115.378906 182.910156 " fill-opacity="1" fill-rule="nonzero"/><path fill="#000000" d="M 118.1875 189.1875 C 118.71875 188.835938 119.207031 188.769531 119.683594 188.875 C 119.917969 188.949219 120.160156 189.136719 120.40625 189.160156 C 120.652344 189.195312 120.890625 189.101562 121.109375 188.964844 C 121.542969 188.671875 121.933594 188.496094 122.324219 188.308594 C 122.730469 188.167969 123.132812 188.0625 123.730469 187.941406 L 123.816406 188.015625 C 123.757812 188.652344 123.324219 189.128906 122.839844 189.40625 C 122.328125 189.648438 121.753906 189.738281 121.199219 189.585938 C 120.925781 189.523438 120.675781 189.476562 120.417969 189.527344 C 120.167969 189.578125 119.910156 189.761719 119.652344 189.820312 C 119.132812 189.894531 118.632812 189.734375 118.171875 189.296875 L 118.1875 189.1875 " fill-opacity="1" fill-rule="nonzero"/><path fill="#000000" d="M 119.996094 183.433594 C 119.941406 183.949219 119.820312 184.210938 119.550781 184.386719 C 119.398438 184.453125 119.15625 184.464844 119.027344 184.582031 C 118.898438 184.699219 118.871094 184.878906 118.882812 185.066406 C 118.929688 185.457031 118.886719 185.746094 118.816406 186.035156 C 118.6875 186.3125 118.511719 186.570312 118.136719 186.898438 L 118.027344 186.894531 C 117.664062 186.539062 117.589844 186.109375 117.636719 185.71875 C 117.746094 185.34375 117.957031 184.988281 118.328125 184.769531 C 118.507812 184.65625 118.660156 184.546875 118.726562 184.371094 C 118.796875 184.207031 118.765625 183.949219 118.835938 183.757812 C 119.019531 183.414062 119.417969 183.214844 119.929688 183.339844 L 119.996094 183.433594 " fill-opacity="1" fill-rule="nonzero"/></svg>