<svg xmlns="http://www.w3.org/2000/svg" xmlns:xlink="http://www.w3.org/1999/xlink" width="40" zoomAndPan="magnify" viewBox="0 0 30 30.000001" height="40" preserveAspectRatio="xMidYMid meet" version="1.0"><defs><clipPath id="1efc5dda90"><path d="M 9.765625 14.007812 L 14.308594 14.007812 L 14.308594 28.996094 L 9.765625 28.996094 Z M 9.765625 14.007812 " clip-rule="nonzero"/></clipPath><clipPath id="3085f76863"><path d="M 7.636719 11 L 10 11 L 10 15 L 7.636719 15 Z M 7.636719 11 " clip-rule="nonzero"/></clipPath><clipPath id="ed1f099463"><path d="M 7.636719 0 L 18 0 L 18 25 L 7.636719 25 Z M 7.636719 0 " clip-rule="nonzero"/></clipPath><clipPath id="2d5e97d36d"><path d="M 14.65625 7.371094 L 22.011719 7.371094 L 22.011719 17.152344 L 14.65625 17.152344 Z M 14.65625 7.371094 " clip-rule="nonzero"/></clipPath></defs><g clip-path="url(#1efc5dda90)"><path fill="#000000" d="M 10.503906 14.757812 C 10.34375 14.726562 10.226562 14.542969 10.285156 14.367188 L 10.289062 14.351562 L 10.308594 14.339844 C 10.441406 14.269531 10.613281 14.285156 10.734375 14.398438 L 10.738281 14.402344 L 10.742188 14.410156 C 10.863281 14.601562 10.800781 14.871094 10.59375 14.996094 C 10.382812 15.109375 10.109375 15.03125 9.984375 14.808594 L 9.972656 14.785156 L 9.976562 14.746094 C 9.980469 14.511719 10.082031 14.285156 10.246094 14.113281 L 10.3125 14.046875 L 10.40625 14.085938 C 10.734375 14.230469 11.003906 14.503906 11.164062 14.8125 C 11.335938 15.117188 11.421875 15.449219 11.484375 15.773438 C 11.59375 16.433594 11.609375 17.074219 11.765625 17.703125 C 12.054688 18.972656 12.679688 20.125 13.1875 21.324219 C 13.6875 22.523438 14.113281 23.816406 14.070312 25.160156 C 14.023438 26.496094 13.660156 27.765625 13.234375 28.996094 L 13.199219 28.988281 C 13.429688 27.707031 13.726562 26.433594 13.714844 25.15625 C 13.710938 23.886719 13.367188 22.640625 12.921875 21.425781 C 12.496094 20.203125 12.015625 18.988281 11.636719 17.738281 C 11.433594 17.113281 11.339844 16.453125 11.195312 15.835938 C 11.054688 15.226562 10.828125 14.601562 10.289062 14.34375 L 10.445312 14.3125 C 10.320312 14.429688 10.242188 14.59375 10.21875 14.765625 L 10.207031 14.703125 C 10.238281 14.800781 10.398438 14.867188 10.5 14.816406 C 10.609375 14.773438 10.667969 14.601562 10.613281 14.488281 L 10.621094 14.503906 C 10.566406 14.429688 10.449219 14.394531 10.355469 14.433594 L 10.378906 14.40625 C 10.328125 14.507812 10.382812 14.675781 10.511719 14.722656 L 10.503906 14.757812 " fill-opacity="1" fill-rule="nonzero"/></g><g clip-path="url(#3085f76863)"><path fill="#000000" d="M 9.253906 12.988281 C 9.132812 12.789062 9.019531 12.601562 8.878906 12.457031 C 8.742188 12.3125 8.578125 12.222656 8.402344 12.183594 C 8.234375 12.136719 8.019531 12.183594 7.898438 12.367188 C 7.777344 12.542969 7.785156 12.78125 7.867188 12.972656 C 8.050781 13.351562 8.34375 13.671875 8.675781 13.917969 C 9.003906 14.179688 9.382812 14.375 9.820312 14.519531 L 9.816406 14.554688 C 9.351562 14.632812 8.851562 14.496094 8.453125 14.21875 C 8.253906 14.078125 8.089844 13.894531 7.953125 13.691406 C 7.8125 13.496094 7.710938 13.265625 7.683594 13.019531 C 7.648438 12.773438 7.6875 12.523438 7.800781 12.308594 C 7.855469 12.203125 7.933594 12.097656 8.042969 12.015625 C 8.152344 11.941406 8.289062 11.894531 8.429688 11.894531 C 8.707031 11.898438 8.957031 12.074219 9.09375 12.289062 C 9.234375 12.5 9.285156 12.742188 9.289062 12.976562 L 9.253906 12.988281 " fill-opacity="1" fill-rule="nonzero"/></g><path fill="#000000" d="M 10.796875 14.453125 C 10.675781 14.128906 10.613281 13.78125 10.605469 13.429688 C 10.601562 13.066406 10.625 12.78125 10.480469 12.515625 C 10.332031 12.242188 10.125 11.953125 9.875 11.730469 C 9.621094 11.507812 9.320312 11.34375 9.015625 11.210938 L 9.1875 11.140625 C 9.097656 11.6875 9.339844 12.253906 9.449219 12.851562 C 9.511719 13.144531 9.554688 13.457031 9.605469 13.738281 C 9.664062 14.015625 9.75 14.304688 10.019531 14.4375 L 10.011719 14.472656 C 9.851562 14.460938 9.695312 14.363281 9.589844 14.234375 C 9.484375 14.109375 9.410156 13.960938 9.351562 13.8125 C 9.242188 13.511719 9.167969 13.230469 9.09375 12.933594 C 9.015625 12.640625 8.953125 12.347656 8.90625 12.039062 C 8.859375 11.730469 8.839844 11.390625 8.957031 11.078125 L 9.015625 10.925781 L 9.128906 11.003906 C 9.417969 11.203125 9.679688 11.429688 9.941406 11.652344 C 10.203125 11.886719 10.476562 12.082031 10.710938 12.371094 C 10.832031 12.515625 10.902344 12.726562 10.910156 12.914062 C 10.917969 13.101562 10.898438 13.273438 10.882812 13.4375 C 10.851562 13.769531 10.839844 14.101562 10.832031 14.449219 L 10.796875 14.453125 " fill-opacity="1" fill-rule="nonzero"/><path fill="#000000" d="M 10.175781 14.105469 C 10.074219 13.988281 10.042969 13.90625 10.0625 13.8125 C 10.082031 13.765625 10.132812 13.710938 10.136719 13.660156 C 10.140625 13.609375 10.109375 13.566406 10.070312 13.527344 C 9.976562 13.453125 9.929688 13.378906 9.886719 13.300781 C 9.863281 13.210938 9.851562 13.117188 9.878906 12.96875 L 9.90625 12.949219 C 10.058594 12.957031 10.15625 13.039062 10.222656 13.136719 C 10.269531 13.238281 10.292969 13.355469 10.253906 13.480469 C 10.238281 13.539062 10.226562 13.59375 10.25 13.644531 C 10.265625 13.691406 10.328125 13.742188 10.355469 13.796875 C 10.386719 13.90625 10.347656 14.027344 10.210938 14.113281 L 10.175781 14.105469 " fill-opacity="1" fill-rule="nonzero"/><path fill="#000000" d="M 8.5625 13.167969 C 8.71875 13.238281 8.800781 13.316406 8.84375 13.429688 C 8.859375 13.488281 8.851562 13.570312 8.882812 13.625 C 8.914062 13.679688 8.972656 13.710938 9.039062 13.730469 C 9.171875 13.761719 9.273438 13.8125 9.371094 13.871094 C 9.464844 13.941406 9.546875 14.023438 9.632812 14.167969 L 9.621094 14.203125 C 9.464844 14.269531 9.3125 14.246094 9.183594 14.191406 C 9.0625 14.117188 8.957031 14.015625 8.90625 13.871094 C 8.878906 13.800781 8.851562 13.738281 8.796875 13.699219 C 8.746094 13.65625 8.660156 13.636719 8.605469 13.59375 C 8.503906 13.496094 8.464844 13.34375 8.53125 13.179688 L 8.5625 13.167969 " fill-opacity="1" fill-rule="nonzero"/><g clip-path="url(#ed1f099463)"><path fill="#000000" d="M 15.441406 1.84375 C 15.738281 1.597656 16.066406 1.382812 16.414062 1.21875 C 16.589844 1.132812 16.769531 1.0625 16.957031 1 C 17.132812 0.949219 17.34375 0.851562 17.566406 0.96875 C 17.667969 1.027344 17.730469 1.152344 17.730469 1.265625 C 17.730469 1.378906 17.699219 1.484375 17.65625 1.578125 C 17.570312 1.769531 17.453125 1.917969 17.351562 2.082031 L 16.722656 3.046875 L 15.464844 4.980469 C 15.253906 5.296875 15.042969 5.632812 14.769531 5.925781 C 14.507812 6.222656 14.140625 6.484375 13.707031 6.535156 L 13.5 6.558594 L 13.554688 6.355469 C 13.929688 4.894531 14.375 3.449219 14.910156 2.035156 C 15.039062 1.6875 15.191406 1.324219 15.308594 0.992188 C 15.359375 0.824219 15.382812 0.652344 15.339844 0.523438 C 15.300781 0.398438 15.183594 0.316406 15.03125 0.308594 C 14.714844 0.285156 14.390625 0.5 14.109375 0.71875 C 13.824219 0.949219 13.566406 1.21875 13.28125 1.476562 C 13 1.730469 12.679688 1.980469 12.285156 2.078125 C 12.09375 2.132812 11.882812 2.128906 11.691406 2.101562 C 11.5 2.066406 11.316406 2.011719 11.136719 1.972656 C 10.957031 1.929688 10.777344 1.902344 10.605469 1.933594 C 10.433594 1.960938 10.277344 2.050781 10.15625 2.179688 C 9.910156 2.441406 9.824219 2.820312 9.886719 3.179688 C 9.949219 3.539062 10.121094 3.875 10.328125 4.183594 C 10.535156 4.488281 10.785156 4.769531 11.0625 5.019531 C 11.613281 5.523438 12.25 5.925781 12.886719 6.324219 L 12.8125 6.429688 C 12.261719 6.027344 11.703125 5.640625 11.132812 5.265625 C 10.84375 5.082031 10.558594 4.898438 10.265625 4.722656 C 9.976562 4.546875 9.6875 4.355469 9.386719 4.234375 C 9.085938 4.109375 8.761719 4.082031 8.488281 4.222656 C 8.214844 4.355469 8.085938 4.652344 8.191406 4.929688 C 8.289062 5.214844 8.542969 5.414062 8.839844 5.539062 C 9.132812 5.664062 9.472656 5.753906 9.792969 5.859375 C 10.445312 6.058594 11.09375 6.257812 11.753906 6.40625 C 12.082031 6.480469 12.410156 6.542969 12.691406 6.476562 C 12.765625 6.460938 12.828125 6.4375 12.890625 6.402344 C 12.957031 6.367188 13.03125 6.316406 13.128906 6.273438 C 13.21875 6.230469 13.386719 6.191406 13.53125 6.277344 C 13.675781 6.371094 13.722656 6.511719 13.730469 6.636719 C 13.742188 6.914062 13.546875 7.113281 13.335938 7.195312 C 13.226562 7.238281 13.09375 7.25 12.96875 7.210938 C 12.839844 7.171875 12.730469 7.074219 12.671875 6.964844 C 12.5625 6.738281 12.585938 6.484375 12.742188 6.28125 C 12.917969 6.066406 13.222656 6.050781 13.421875 6.144531 C 13.625 6.226562 13.789062 6.40625 13.871094 6.589844 C 13.953125 6.773438 13.988281 6.964844 14.011719 7.136719 L 14.160156 8.148438 L 14.738281 12.207031 C 14.832031 12.886719 14.929688 13.558594 15.003906 14.246094 C 15.085938 14.929688 15.097656 15.640625 14.980469 16.324219 C 14.875 17.011719 14.691406 17.671875 14.542969 18.335938 C 14.394531 19 14.261719 19.667969 14.15625 20.34375 C 13.941406 21.6875 13.777344 23.042969 13.710938 24.410156 L 13.675781 24.40625 C 13.695312 23.039062 13.777344 21.671875 13.976562 20.316406 C 14.074219 19.636719 14.1875 18.960938 14.324219 18.289062 C 14.460938 17.617188 14.628906 16.953125 14.714844 16.289062 C 14.917969 14.957031 14.570312 13.609375 14.390625 12.257812 L 13.796875 8.203125 L 13.648438 7.191406 C 13.601562 6.859375 13.511719 6.574219 13.28125 6.480469 C 13.171875 6.433594 13.066406 6.453125 13.019531 6.511719 C 12.960938 6.578125 12.945312 6.71875 12.992188 6.796875 C 13.027344 6.875 13.109375 6.898438 13.210938 6.867188 C 13.3125 6.832031 13.390625 6.726562 13.382812 6.65625 C 13.382812 6.609375 13.359375 6.574219 13.355469 6.574219 C 13.347656 6.570312 13.328125 6.566406 13.261719 6.589844 C 13.203125 6.613281 13.136719 6.65625 13.050781 6.703125 C 12.960938 6.75 12.863281 6.785156 12.769531 6.804688 C 12.378906 6.890625 12.015625 6.800781 11.679688 6.726562 C 11.007812 6.566406 10.351562 6.367188 9.703125 6.148438 C 9.378906 6.03125 9.054688 5.945312 8.722656 5.796875 C 8.398438 5.652344 8.0625 5.394531 7.945312 5.011719 C 7.882812 4.828125 7.878906 4.609375 7.964844 4.421875 C 8.050781 4.234375 8.210938 4.09375 8.382812 4.011719 C 8.734375 3.835938 9.148438 3.886719 9.46875 4.03125 C 9.804688 4.175781 10.082031 4.375 10.371094 4.554688 C 10.660156 4.738281 10.945312 4.929688 11.230469 5.121094 C 11.796875 5.507812 12.347656 5.910156 12.890625 6.324219 L 12.816406 6.433594 C 12.183594 6.03125 11.542969 5.617188 10.984375 5.101562 C 10.707031 4.84375 10.453125 4.554688 10.238281 4.242188 C 10.023438 3.929688 9.839844 3.582031 9.769531 3.195312 C 9.699219 2.816406 9.785156 2.386719 10.0625 2.089844 C 10.195312 1.941406 10.382812 1.832031 10.582031 1.796875 C 10.78125 1.765625 10.980469 1.789062 11.167969 1.828125 C 11.542969 1.910156 11.898438 2.011719 12.242188 1.90625 C 12.582031 1.8125 12.875 1.578125 13.140625 1.324219 C 13.40625 1.066406 13.660156 0.785156 13.957031 0.535156 C 14.105469 0.410156 14.261719 0.289062 14.441406 0.199219 C 14.617188 0.0976562 14.824219 0.03125 15.046875 0.0390625 C 15.269531 0.0390625 15.527344 0.191406 15.605469 0.429688 C 15.6875 0.664062 15.640625 0.882812 15.585938 1.074219 C 15.457031 1.453125 15.320312 1.78125 15.191406 2.140625 C 14.679688 3.550781 14.21875 4.980469 13.828125 6.429688 L 13.675781 6.253906 C 14.015625 6.214844 14.324219 6.007812 14.570312 5.742188 C 14.824219 5.472656 15.03125 5.15625 15.246094 4.835938 L 16.554688 2.933594 L 17.207031 1.984375 C 17.3125 1.824219 17.4375 1.667969 17.515625 1.511719 C 17.59375 1.355469 17.625 1.164062 17.492188 1.078125 C 17.367188 0.996094 17.167969 1.054688 16.988281 1.105469 C 16.804688 1.15625 16.625 1.21875 16.449219 1.292969 C 16.097656 1.445312 15.765625 1.636719 15.464844 1.871094 L 15.441406 1.84375 " fill-opacity="1" fill-rule="nonzero"/></g><path fill="#000000" d="M 10.773438 5.847656 C 10.984375 5.796875 11.164062 5.820312 11.328125 5.902344 C 11.40625 5.953125 11.476562 6.035156 11.558594 6.070312 C 11.640625 6.109375 11.738281 6.113281 11.832031 6.109375 C 12.023438 6.09375 12.203125 6.121094 12.375 6.164062 C 12.546875 6.222656 12.710938 6.304688 12.867188 6.453125 L 12.859375 6.484375 C 12.65625 6.554688 12.46875 6.554688 12.285156 6.523438 C 12.109375 6.476562 11.933594 6.410156 11.777344 6.292969 C 11.699219 6.238281 11.617188 6.191406 11.527344 6.179688 C 11.4375 6.160156 11.332031 6.1875 11.238281 6.179688 C 11.054688 6.148438 10.890625 6.054688 10.761719 5.878906 L 10.773438 5.847656 " fill-opacity="1" fill-rule="nonzero"/><path fill="#000000" d="M 13.378906 6.511719 C 13.46875 6.289062 13.59375 6.132812 13.753906 6.007812 C 13.839844 5.953125 13.953125 5.917969 14.027344 5.847656 C 14.105469 5.777344 14.15625 5.683594 14.195312 5.585938 C 14.269531 5.382812 14.367188 5.207031 14.472656 5.035156 C 14.59375 4.875 14.722656 4.71875 14.914062 4.582031 L 14.945312 4.59375 C 14.957031 4.832031 14.890625 5.042969 14.789062 5.234375 C 14.675781 5.414062 14.535156 5.582031 14.347656 5.703125 C 14.257812 5.769531 14.171875 5.835938 14.113281 5.921875 C 14.050781 6.007812 14.019531 6.121094 13.960938 6.214844 C 13.828125 6.382812 13.640625 6.503906 13.402344 6.539062 L 13.378906 6.511719 " fill-opacity="1" fill-rule="nonzero"/><path fill="#000000" d="M 12.21875 4.910156 C 12.367188 5.007812 12.429688 5.101562 12.449219 5.226562 C 12.449219 5.289062 12.417969 5.363281 12.433594 5.425781 C 12.449219 5.488281 12.492188 5.53125 12.550781 5.574219 C 12.667969 5.644531 12.742188 5.734375 12.8125 5.828125 C 12.867188 5.933594 12.910156 6.046875 12.910156 6.214844 L 12.882812 6.238281 C 12.714844 6.222656 12.597656 6.144531 12.507812 6.042969 C 12.433594 5.9375 12.378906 5.808594 12.378906 5.660156 C 12.375 5.589844 12.371094 5.523438 12.332031 5.472656 C 12.292969 5.417969 12.21875 5.378906 12.175781 5.324219 C 12.105469 5.210938 12.097656 5.070312 12.1875 4.921875 L 12.21875 4.910156 " fill-opacity="1" fill-rule="nonzero"/><path fill="#000000" d="M 13.324219 6.34375 C 13.265625 6.164062 13.269531 6.03125 13.320312 5.898438 C 13.351562 5.835938 13.417969 5.773438 13.433594 5.703125 C 13.453125 5.632812 13.433594 5.554688 13.402344 5.488281 C 13.332031 5.347656 13.296875 5.21875 13.265625 5.085938 C 13.253906 4.949219 13.25 4.8125 13.292969 4.632812 L 13.328125 4.617188 C 13.492188 4.710938 13.582031 4.851562 13.628906 5.007812 C 13.664062 5.160156 13.660156 5.328125 13.59375 5.484375 C 13.566406 5.5625 13.539062 5.636719 13.546875 5.710938 C 13.550781 5.785156 13.597656 5.871094 13.605469 5.953125 C 13.605469 6.113281 13.523438 6.265625 13.355469 6.355469 L 13.324219 6.34375 " fill-opacity="1" fill-rule="nonzero"/><g clip-path="url(#2d5e97d36d)"><path fill="#000000" d="M 20.933594 10.210938 C 20.800781 9.71875 20.617188 9.214844 20.238281 8.886719 C 20.050781 8.730469 19.828125 8.617188 19.589844 8.570312 C 19.355469 8.515625 19.113281 8.550781 18.964844 8.707031 C 18.8125 8.863281 18.746094 9.113281 18.664062 9.355469 C 18.578125 9.597656 18.5 9.839844 18.441406 10.082031 C 18.324219 10.570312 18.292969 11.078125 18.476562 11.519531 L 18.253906 11.449219 C 18.972656 10.960938 19.746094 10.558594 20.542969 10.226562 C 20.75 10.148438 20.941406 10.058594 21.171875 10.007812 C 21.285156 9.980469 21.410156 9.964844 21.542969 9.992188 C 21.671875 10.015625 21.800781 10.097656 21.875 10.210938 C 22.128906 10.660156 21.992188 11.167969 21.742188 11.53125 C 21.484375 11.902344 21.089844 12.15625 20.679688 12.296875 C 20.269531 12.445312 19.84375 12.519531 19.417969 12.601562 C 19.203125 12.628906 18.980469 12.648438 18.757812 12.605469 C 18.539062 12.570312 18.304688 12.445312 18.199219 12.226562 C 18.085938 12.007812 18.105469 11.769531 18.117188 11.558594 C 18.128906 11.34375 18.148438 11.128906 18.167969 10.914062 C 18.210938 10.484375 18.269531 10.054688 18.34375 9.628906 C 18.417969 9.210938 18.5 8.785156 18.363281 8.433594 C 18.292969 8.257812 18.175781 8.101562 18.023438 8.027344 C 17.875 7.945312 17.695312 7.953125 17.527344 8.019531 C 17.183594 8.148438 16.980469 8.503906 16.921875 8.898438 C 16.808594 9.699219 16.957031 10.558594 17.257812 11.320312 C 17.410156 11.699219 17.621094 12.085938 17.855469 12.386719 C 17.910156 12.441406 17.929688 12.449219 17.984375 12.445312 C 18.039062 12.441406 18.109375 12.40625 18.148438 12.355469 C 18.234375 12.257812 18.261719 12.066406 18.242188 11.871094 L 18.40625 12.035156 C 18.125 12.007812 17.867188 12.007812 17.75 12.160156 C 17.6875 12.242188 17.667969 12.316406 17.707031 12.386719 C 17.726562 12.429688 17.773438 12.484375 17.816406 12.570312 C 17.863281 12.652344 17.882812 12.78125 17.859375 12.878906 C 17.8125 13.070312 17.703125 13.1875 17.628906 13.304688 L 16.878906 14.347656 C 16.542969 14.808594 16.203125 15.269531 15.851562 15.722656 C 15.5 16.171875 15.132812 16.609375 14.753906 17.039062 L 14.726562 17.019531 C 15.417969 16.105469 16.054688 15.164062 16.679688 14.210938 L 17.152344 13.496094 L 17.390625 13.140625 C 17.46875 13.015625 17.550781 12.90625 17.5625 12.820312 C 17.570312 12.773438 17.566406 12.753906 17.542969 12.710938 C 17.523438 12.667969 17.472656 12.613281 17.429688 12.53125 C 17.378906 12.449219 17.355469 12.324219 17.375 12.226562 C 17.390625 12.121094 17.4375 12.03125 17.496094 11.957031 C 17.609375 11.804688 17.800781 11.71875 17.960938 11.695312 C 18.128906 11.664062 18.289062 11.671875 18.429688 11.683594 L 18.582031 11.695312 L 18.59375 11.84375 C 18.605469 12.070312 18.609375 12.347656 18.414062 12.585938 C 18.320312 12.699219 18.1875 12.777344 18.027344 12.800781 C 17.867188 12.832031 17.671875 12.734375 17.589844 12.625 C 17.292969 12.25 17.09375 11.875 16.917969 11.460938 C 16.578125 10.632812 16.453125 9.734375 16.585938 8.835938 C 16.628906 8.609375 16.707031 8.378906 16.84375 8.175781 C 16.980469 7.972656 17.179688 7.808594 17.417969 7.71875 C 17.648438 7.632812 17.9375 7.628906 18.167969 7.761719 C 18.398438 7.890625 18.546875 8.109375 18.625 8.335938 C 18.789062 8.804688 18.664062 9.265625 18.574219 9.675781 C 18.480469 10.09375 18.402344 10.511719 18.34375 10.933594 C 18.316406 11.148438 18.292969 11.359375 18.269531 11.570312 C 18.25 11.78125 18.230469 11.992188 18.3125 12.167969 C 18.398438 12.34375 18.582031 12.449219 18.78125 12.488281 C 18.980469 12.527344 19.195312 12.515625 19.402344 12.488281 C 19.820312 12.421875 20.246094 12.335938 20.640625 12.183594 C 21.03125 12.035156 21.398438 11.800781 21.613281 11.445312 C 21.722656 11.273438 21.792969 11.078125 21.8125 10.878906 C 21.832031 10.691406 21.796875 10.472656 21.699219 10.335938 C 21.601562 10.203125 21.417969 10.191406 21.230469 10.246094 C 21.046875 10.296875 20.847656 10.394531 20.652344 10.480469 C 19.875 10.824219 19.132812 11.242188 18.421875 11.703125 L 18.261719 11.804688 L 18.195312 11.632812 C 17.984375 11.101562 18.042969 10.527344 18.175781 10.019531 C 18.242188 9.761719 18.324219 9.511719 18.414062 9.269531 C 18.511719 9.03125 18.585938 8.761719 18.808594 8.542969 C 19.035156 8.324219 19.375 8.308594 19.632812 8.382812 C 19.902344 8.449219 20.148438 8.582031 20.34375 8.773438 C 20.730469 9.167969 20.886719 9.699219 20.96875 10.203125 L 20.933594 10.210938 " fill-opacity="1" fill-rule="nonzero"/></g><path fill="#000000" d="M 17.613281 10.1875 C 17.679688 10.367188 17.6875 10.507812 17.640625 10.648438 C 17.613281 10.71875 17.550781 10.789062 17.539062 10.863281 C 17.523438 10.941406 17.550781 11.015625 17.585938 11.089844 C 17.667969 11.230469 17.714844 11.363281 17.753906 11.496094 C 17.769531 11.570312 17.78125 11.640625 17.78125 11.71875 C 17.785156 11.753906 17.789062 11.800781 17.78125 11.832031 C 17.777344 11.84375 17.765625 11.835938 17.734375 11.851562 C 17.707031 11.867188 17.71875 11.886719 17.722656 11.886719 C 17.722656 11.882812 17.75 11.898438 17.753906 11.882812 L 17.734375 11.855469 C 17.738281 11.84375 17.765625 11.839844 17.777344 11.851562 C 17.789062 11.863281 17.796875 11.871094 17.800781 11.882812 C 17.804688 11.898438 17.808594 11.941406 17.757812 11.964844 C 17.691406 11.984375 17.644531 11.9375 17.625 11.921875 C 17.582031 11.878906 17.558594 11.859375 17.527344 11.820312 C 17.46875 11.757812 17.429688 11.683594 17.398438 11.605469 C 17.351562 11.445312 17.339844 11.269531 17.398438 11.105469 C 17.417969 11.019531 17.4375 10.941406 17.425781 10.863281 C 17.414062 10.785156 17.363281 10.699219 17.351562 10.617188 C 17.34375 10.449219 17.417969 10.285156 17.582031 10.175781 L 17.613281 10.1875 " fill-opacity="1" fill-rule="nonzero"/><path fill="#000000" d="M 18.472656 12.109375 C 18.636719 12 18.785156 11.980469 18.929688 12.011719 C 19.003906 12.035156 19.078125 12.09375 19.152344 12.097656 C 19.226562 12.109375 19.300781 12.082031 19.367188 12.039062 C 19.5 11.949219 19.621094 11.894531 19.738281 11.839844 C 19.863281 11.796875 19.988281 11.761719 20.171875 11.726562 L 20.195312 11.75 C 20.179688 11.945312 20.046875 12.089844 19.898438 12.175781 C 19.742188 12.25 19.566406 12.277344 19.394531 12.230469 C 19.3125 12.210938 19.234375 12.195312 19.15625 12.210938 C 19.082031 12.226562 19 12.285156 18.921875 12.300781 C 18.761719 12.324219 18.609375 12.273438 18.46875 12.140625 L 18.472656 12.109375 " fill-opacity="1" fill-rule="nonzero"/><path fill="#000000" d="M 19.027344 10.347656 C 19.011719 10.503906 18.972656 10.585938 18.890625 10.636719 C 18.84375 10.65625 18.769531 10.664062 18.730469 10.699219 C 18.691406 10.734375 18.683594 10.789062 18.6875 10.847656 C 18.699219 10.964844 18.6875 11.054688 18.664062 11.144531 C 18.625 11.226562 18.574219 11.304688 18.457031 11.40625 L 18.425781 11.40625 C 18.3125 11.296875 18.289062 11.164062 18.304688 11.046875 C 18.339844 10.929688 18.402344 10.820312 18.515625 10.753906 C 18.570312 10.722656 18.617188 10.6875 18.636719 10.632812 C 18.660156 10.582031 18.652344 10.503906 18.671875 10.445312 C 18.726562 10.339844 18.851562 10.277344 19.007812 10.316406 L 19.027344 10.347656 " fill-opacity="1" fill-rule="nonzero"/></svg>